<svg version="1.1" viewBox="0.0 0.0 600.0 371.0" fill="none" stroke="none" stroke-linecap="square" stroke-miterlimit="10" width="600" height="371" xmlns:xlink="http://www.w3.org/1999/xlink" xmlns="http://www.w3.org/2000/svg"><path fill="#ffffff" d="M0 0L600.0 0L600.0 371.0L0 371.0L0 0Z" fill-rule="nonzero"/><path fill="#ea4335" d="M268.22162 53.799168C278.54077 51.605762 289.0614 50.5 299.61108 50.5L299.61108 201.475Z" fill-rule="nonzero"/><path fill="#4285f4" d="M299.61108 50.5C379.92163 50.5 446.17606 113.373085 450.37918 193.57358C454.5823 273.77408 395.26288 343.2282 315.39227 351.62296C235.52167 360.01767 163.05818 304.4145 150.49484 225.0927C137.9315 145.77089 189.66605 70.496666 268.22162 53.799168L299.61108 201.475Z" fill-rule="nonzero"/><path fill="#1a1a1a" d="M18.694044 61.5L18.694044 52.90625L19.850294 52.90625L24.36592 59.65625L24.36592 52.90625L25.45967 52.90625L25.45967 61.5L24.287794 61.5L19.77217 54.75L19.77217 61.5L18.694044 61.5ZM31.819044 59.5L32.912796 59.625Q32.662796 60.578125 31.95967 61.109375Q31.256544 61.640625 30.17842 61.640625Q28.819044 61.640625 28.006544 60.796875Q27.20967 59.953125 27.20967 58.4375Q27.20967 56.875 28.02217 56.015625Q28.83467 55.140625 30.11592 55.140625Q31.36592 55.140625 32.14717 55.984375Q32.944046 56.828125 32.944046 58.375Q32.944046 58.46875 32.944046 58.65625L28.30342 58.65625Q28.36592 59.6875 28.881544 60.234375Q29.39717 60.765625 30.17842 60.765625Q30.756544 60.765625 31.162794 60.46875Q31.58467 60.15625 31.819044 59.5ZM28.36592 57.796875L31.83467 57.796875Q31.77217 57.0 31.444044 56.609375Q30.92842 56.0 30.131544 56.0Q29.39717 56.0 28.89717 56.484375Q28.412794 56.96875 28.36592 57.796875ZM34.569046 54.125L34.569046 52.90625L35.631546 52.90625L35.631546 54.125L34.569046 54.125ZM34.569046 61.5L34.569046 55.28125L35.631546 55.28125L35.631546 61.5L34.569046 61.5ZM37.569046 61.5L37.569046 55.28125L38.506546 55.28125L38.506546 56.15625Q39.194046 55.140625 40.49092 55.140625Q41.05342 55.140625 41.52217 55.34375Q42.006546 55.546875 42.24092 55.875Q42.475296 56.203125 42.569046 56.640625Q42.61592 56.9375 42.61592 57.671875L42.61592 61.5L41.569046 61.5L41.569046 57.71875Q41.569046 57.0625 41.444046 56.75Q41.319046 56.4375 41.006546 56.25Q40.694046 56.046875 40.27217 56.046875Q39.600296 56.046875 39.100296 56.484375Q38.61592 56.90625 38.61592 58.09375L38.61592 61.5L37.569046 61.5Z" fill-rule="nonzero"/><path fill="#9e9e9e" d="M18.27217 76.234375L19.33467 76.09375Q19.506544 76.984375 19.944044 77.390625Q20.381544 77.78125 21.006544 77.78125Q21.756544 77.78125 22.27217 77.265625Q22.787794 76.75 22.787794 75.984375Q22.787794 75.265625 22.30342 74.796875Q21.83467 74.3125 21.100294 74.3125Q20.80342 74.3125 20.350294 74.4375L20.475294 73.5Q20.58467 73.515625 20.64717 73.515625Q21.319044 73.515625 21.850294 73.171875Q22.39717 72.8125 22.39717 72.078125Q22.39717 71.5 22.006544 71.125Q21.61592 70.734375 20.99092 70.734375Q20.381544 70.734375 19.95967 71.125Q19.55342 71.515625 19.444044 72.28125L18.381544 72.09375Q18.569044 71.046875 19.256544 70.46875Q19.944044 69.875 20.95967 69.875Q21.662794 69.875 22.256544 70.1875Q22.850294 70.484375 23.162794 71.0Q23.475294 71.515625 23.475294 72.109375Q23.475294 72.65625 23.17842 73.125Q22.881544 73.578125 22.30342 73.84375Q23.05342 74.015625 23.475294 74.578125Q23.89717 75.125 23.89717 75.96875Q23.89717 77.09375 23.069044 77.875Q22.256544 78.65625 21.006544 78.65625Q19.881544 78.65625 19.131544 77.984375Q18.381544 77.296875 18.27217 76.234375ZM25.86592 78.5L25.86592 77.296875L27.069044 77.296875L27.069044 78.5L25.86592 78.5ZM28.27217 76.234375L29.33467 76.09375Q29.506544 76.984375 29.944044 77.390625Q30.381544 77.78125 31.006544 77.78125Q31.756544 77.78125 32.27217 77.265625Q32.787796 76.75 32.787796 75.984375Q32.787796 75.265625 32.30342 74.796875Q31.83467 74.3125 31.100294 74.3125Q30.80342 74.3125 30.350294 74.4375L30.475294 73.5Q30.58467 73.515625 30.64717 73.515625Q31.319044 73.515625 31.850294 73.171875Q32.39717 72.8125 32.39717 72.078125Q32.39717 71.5 32.006546 71.125Q31.61592 70.734375 30.99092 70.734375Q30.381544 70.734375 29.95967 71.125Q29.55342 71.515625 29.444044 72.28125L28.381544 72.09375Q28.569044 71.046875 29.256544 70.46875Q29.944044 69.875 30.95967 69.875Q31.662794 69.875 32.256546 70.1875Q32.850296 70.484375 33.162796 71.0Q33.475296 71.515625 33.475296 72.109375Q33.475296 72.65625 33.17842 73.125Q32.881546 73.578125 32.30342 73.84375Q33.05342 74.015625 33.475296 74.578125Q33.89717 75.125 33.89717 75.96875Q33.89717 77.09375 33.069046 77.875Q32.256546 78.65625 31.006544 78.65625Q29.881544 78.65625 29.131544 77.984375Q28.381544 77.296875 28.27217 76.234375ZM35.475296 71.96875Q35.475296 71.046875 35.92842 70.40625Q36.39717 69.765625 37.27217 69.765625Q38.08467 69.765625 38.61592 70.34375Q39.14717 70.921875 39.14717 72.03125Q39.14717 73.125 38.600296 73.71875Q38.069046 74.296875 37.287796 74.296875Q36.506546 74.296875 35.99092 73.71875Q35.475296 73.140625 35.475296 71.96875ZM37.30342 70.484375Q36.912796 70.484375 36.64717 70.828125Q36.39717 71.171875 36.39717 72.078125Q36.39717 72.90625 36.64717 73.25Q36.912796 73.578125 37.30342 73.578125Q37.70967 73.578125 37.95967 73.234375Q38.225296 72.890625 38.225296 72.0Q38.225296 71.15625 37.95967 70.828125Q37.694046 70.484375 37.30342 70.484375ZM37.30342 78.8125L42.006546 69.765625L42.86592 69.765625L38.17842 78.8125L37.30342 78.8125ZM41.02217 76.484375Q41.02217 75.5625 41.475296 74.921875Q41.944046 74.28125 42.83467 74.28125Q43.64717 74.28125 44.17842 74.859375Q44.70967 75.421875 44.70967 76.546875Q44.70967 77.640625 44.162796 78.234375Q43.631546 78.8125 42.83467 78.8125Q42.069046 78.8125 41.537796 78.234375Q41.02217 77.65625 41.02217 76.484375ZM42.86592 75.0Q42.45967 75.0 42.194046 75.34375Q41.944046 75.6875 41.944046 76.59375Q41.944046 77.40625 42.20967 77.75Q42.475296 78.09375 42.86592 78.09375Q43.256546 78.09375 43.52217 77.75Q43.787796 77.40625 43.787796 76.5Q43.787796 75.671875 43.52217 75.34375Q43.256546 75.0 42.86592 75.0Z" fill-rule="nonzero"/><path stroke="#757575" stroke-width="1.0" stroke-linecap="butt" d="M17.77217 66.0L142.63608 66.0L284.61896 58.834454" fill-rule="nonzero"/><path fill="#9e9e9e" d="M286.61896 58.834454C286.61896 57.729885 285.72354 56.834454 284.61896 56.834454C283.5144 56.834454 282.61896 57.729885 282.61896 58.834454C282.61896 59.939022 283.5144 60.834454 284.61896 60.834454C285.72354 60.834454 286.61896 59.939022 286.61896 58.834454" fill-rule="nonzero"/><path fill="#1a1a1a" d="M568.79376 330.0125L569.825 329.8719Q569.85626 330.85626 570.1844 331.21564Q570.5125 331.575 571.10626 331.575Q571.52814 331.575 571.84064 331.3875Q572.15314 331.1844 572.2625 330.85626Q572.3875 330.5125 572.3875 329.77814L572.3875 323.85626L573.5125 323.85626L573.5125 329.71564Q573.5125 330.79376 573.2469 331.3875Q572.9969 331.98126 572.4344 332.29376Q571.8719 332.59064 571.10626 332.59064Q569.98126 332.59064 569.3719 331.95Q568.77814 331.29376 568.79376 330.0125ZM579.3094 331.6844Q578.71564 332.1844 578.16876 332.3875Q577.6375 332.59064 577.0125 332.59064Q575.98126 332.59064 575.4344 332.09064Q574.8875 331.59064 574.8875 330.8094Q574.8875 330.35626 575.09064 329.98126Q575.29376 329.59064 575.6375 329.3719Q575.98126 329.1375 576.40314 329.02814Q576.7 328.9344 577.34064 328.85626Q578.60626 328.71564 579.21564 328.4969Q579.21564 328.27814 579.21564 328.23126Q579.21564 327.575 578.91876 327.3094Q578.5125 326.96564 577.71564 326.96564Q576.98126 326.96564 576.6219 327.23126Q576.2625 327.48126 576.09064 328.1375L575.0594 327.9969Q575.2 327.34064 575.52814 326.9344Q575.85626 326.52814 576.46564 326.3094Q577.075 326.09064 577.8719 326.09064Q578.66876 326.09064 579.16876 326.27814Q579.66876 326.46564 579.90314 326.7469Q580.1375 327.02814 580.23126 327.46564Q580.27814 327.73126 580.27814 328.4344L580.27814 329.84064Q580.27814 331.3094 580.34064 331.7Q580.41876 332.09064 580.6219 332.45L579.5125 332.45Q579.35626 332.1219 579.3094 331.6844ZM579.21564 329.325Q578.6375 329.5594 577.4969 329.73126Q576.84064 329.825 576.575 329.95Q576.3094 330.0594 576.15314 330.27814Q576.0125 330.4969 576.0125 330.77814Q576.0125 331.2 576.325 331.48126Q576.65314 331.7625 577.2625 331.7625Q577.8719 331.7625 578.34064 331.4969Q578.825 331.23126 579.04376 330.7625Q579.21564 330.40314 579.21564 329.71564L579.21564 329.325Z" fill-rule="nonzero"/><path fill="#9e9e9e" d="M547.10626 347.46564L548.1219 347.3719Q548.2469 348.09064 548.60626 348.41876Q548.98126 348.73126 549.54376 348.73126Q550.02814 348.73126 550.3875 348.5125Q550.7625 348.27814 550.9969 347.91876Q551.23126 347.54376 551.3875 346.91876Q551.54376 346.27814 551.54376 345.6219Q551.54376 345.54376 551.54376 345.40314Q551.23126 345.90314 550.6844 346.23126Q550.1375 346.54376 549.4969 346.54376Q548.41876 346.54376 547.6844 345.77814Q546.95 344.9969 546.95 343.73126Q546.95 342.41876 547.71564 341.6219Q548.4969 340.825 549.65314 340.825Q550.48126 340.825 551.16876 341.27814Q551.8719 341.73126 552.23126 342.575Q552.59064 343.40314 552.59064 344.98126Q552.59064 346.6219 552.23126 347.60626Q551.8875 348.575 551.16876 349.09064Q550.46564 349.59064 549.52814 349.59064Q548.5125 349.59064 547.8719 349.04376Q547.23126 348.48126 547.10626 347.46564ZM551.41876 343.66876Q551.41876 342.7625 550.9344 342.23126Q550.46564 341.7 549.77814 341.7Q549.075 341.7 548.54376 342.27814Q548.02814 342.84064 548.02814 343.7625Q548.02814 344.575 548.52814 345.09064Q549.02814 345.60626 549.7469 345.60626Q550.48126 345.60626 550.95 345.09064Q551.41876 344.575 551.41876 343.66876ZM559.41876 342.96564L558.3719 343.04376Q558.23126 342.41876 557.98126 342.1375Q557.54376 341.6844 556.91876 341.6844Q556.41876 341.6844 556.02814 341.96564Q555.54376 342.34064 555.2469 343.04376Q554.96564 343.73126 554.95 345.0125Q555.325 344.4344 555.8719 344.15314Q556.4344 343.8719 557.04376 343.8719Q558.09064 343.8719 558.825 344.65314Q559.575 345.4344 559.575 346.65314Q559.575 347.46564 559.21564 348.16876Q558.8719 348.85626 558.2625 349.23126Q557.65314 349.59064 556.8875 349.59064Q555.5594 349.59064 554.73126 348.6219Q553.90314 347.65314 553.90314 345.4344Q553.90314 342.9344 554.825 341.8094Q555.6219 340.825 556.98126 340.825Q557.9969 340.825 558.6375 341.40314Q559.29376 341.96564 559.41876 342.96564ZM555.1219 346.66876Q555.1219 347.21564 555.34064 347.71564Q555.575 348.2 555.98126 348.46564Q556.40314 348.73126 556.8719 348.73126Q557.52814 348.73126 558.0125 348.2Q558.4969 347.65314 558.4969 346.73126Q558.4969 345.84064 558.0125 345.325Q557.54376 344.8094 556.825 344.8094Q556.10626 344.8094 555.60626 345.325Q555.1219 345.84064 555.1219 346.66876ZM561.54376 349.45L561.54376 348.2469L562.7469 348.2469L562.7469 349.45L561.54376 349.45ZM564.0125 341.98126L564.0125 340.96564L569.575 340.96564L569.575 341.79376Q568.7625 342.66876 567.95 344.1219Q567.15314 345.5594 566.71564 347.09064Q566.3875 348.16876 566.3094 349.45L565.21564 349.45Q565.23126 348.4344 565.60626 346.9969Q565.9969 345.5594 566.7 344.23126Q567.41876 342.90314 568.23126 341.98126L564.0125 341.98126ZM571.15314 342.91876Q571.15314 341.9969 571.60626 341.35626Q572.075 340.71564 572.95 340.71564Q573.7625 340.71564 574.29376 341.29376Q574.825 341.8719 574.825 342.98126Q574.825 344.075 574.27814 344.66876Q573.7469 345.2469 572.96564 345.2469Q572.1844 345.2469 571.66876 344.66876Q571.15314 344.09064 571.15314 342.91876ZM572.98126 341.4344Q572.59064 341.4344 572.325 341.77814Q572.075 342.1219 572.075 343.02814Q572.075 343.85626 572.325 344.2Q572.59064 344.52814 572.98126 344.52814Q573.3875 344.52814 573.6375 344.1844Q573.90314 343.84064 573.90314 342.95Q573.90314 342.10626 573.6375 341.77814Q573.3719 341.4344 572.98126 341.4344ZM572.98126 349.7625L577.6844 340.71564L578.54376 340.71564L573.85626 349.7625L572.98126 349.7625ZM576.7 347.4344Q576.7 346.5125 577.15314 345.8719Q577.6219 345.23126 578.5125 345.23126Q579.325 345.23126 579.85626 345.8094Q580.3875 346.3719 580.3875 347.4969Q580.3875 348.59064 579.84064 349.1844Q579.3094 349.7625 578.5125 349.7625Q577.7469 349.7625 577.21564 349.1844Q576.7 348.60626 576.7 347.4344ZM578.54376 345.95Q578.1375 345.95 577.8719 346.29376Q577.6219 346.6375 577.6219 347.54376Q577.6219 348.35626 577.8875 348.7Q578.15314 349.04376 578.54376 349.04376Q578.9344 349.04376 579.2 348.7Q579.46564 348.35626 579.46564 347.45Q579.46564 346.6219 579.2 346.29376Q578.9344 345.95 578.54376 345.95Z" fill-rule="nonzero"/><path stroke="#757575" stroke-width="1.0" stroke-linecap="butt" d="M581.45 336.95L456.5861 336.95L314.6032 344.11554" fill-rule="nonzero"/><path fill="#9e9e9e" d="M316.6032 344.11554C316.6032 343.011 315.7078 342.11554 314.6032 342.11554C313.49863 342.11554 312.6032 343.011 312.6032 344.11554C312.6032 345.22012 313.49863 346.11554 314.6032 346.11554C315.7078 346.11554 316.6032 345.22012 316.6032 344.11554" fill-rule="nonzero"/><path fill="#757575" d="M21.51875 37.55L27.01875 23.2375L29.065624 23.2375L34.925 37.55L32.76875 37.55L31.096874 33.20625L25.1125 33.20625L23.534374 37.55L21.51875 37.55ZM25.659374 31.675L30.503124 31.675L29.01875 27.70625Q28.33125 25.89375 28.003124 24.7375Q27.721874 26.1125 27.221874 27.471874L25.659374 31.675ZM42.659374 37.55L42.659374 36.01875Q41.45625 37.784374 39.378124 37.784374Q38.45625 37.784374 37.659374 37.440624Q36.8625 37.08125 36.471874 36.55Q36.096874 36.01875 35.940624 35.2375Q35.83125 34.721874 35.83125 33.596874L35.83125 27.175L37.58125 27.175L37.58125 32.925Q37.58125 34.3 37.690624 34.784374Q37.8625 35.471874 38.39375 35.878124Q38.940624 36.26875 39.721874 36.26875Q40.51875 36.26875 41.20625 35.8625Q41.909374 35.45625 42.190624 34.76875Q42.4875 34.065624 42.4875 32.7375L42.4875 27.175L44.2375 27.175L44.2375 37.55L42.659374 37.55ZM46.284374 37.55L46.284374 28.55L44.7375 28.55L44.7375 27.175L46.284374 27.175L46.284374 26.08125Q46.284374 25.034374 46.471874 24.51875Q46.721874 23.83125 47.3625 23.409374Q48.003124 22.9875 49.159374 22.9875Q49.909374 22.9875 50.8 23.159374L50.534374 24.690624Q49.9875 24.596874 49.503124 24.596874Q48.70625 24.596874 48.3625 24.940624Q48.034374 25.284374 48.034374 26.221874L48.034374 27.175L50.065624 27.175L50.065624 28.55L48.034374 28.55L48.034374 37.55L46.284374 37.55ZM51.55 38.409374L53.253124 38.659374Q53.3625 39.45625 53.846874 39.815624Q54.503124 40.3 55.64375 40.3Q56.8625 40.3 57.51875 39.815624Q58.190624 39.33125 58.425 38.45625Q58.565624 37.909374 58.55 36.190624Q57.39375 37.55 55.675 37.55Q53.534374 37.55 52.3625 36.003124Q51.190624 34.45625 51.190624 32.3Q51.190624 30.815624 51.721874 29.565624Q52.26875 28.315624 53.284374 27.628124Q54.315624 26.940624 55.690624 26.940624Q57.51875 26.940624 58.721874 28.425L58.721874 27.175L60.33125 27.175L60.33125 36.14375Q60.33125 38.565624 59.83125 39.565624Q59.346874 40.58125 58.26875 41.159374Q57.20625 41.753124 55.64375 41.753124Q53.8 41.753124 52.64375 40.925Q51.503124 40.096874 51.55 38.409374ZM53.003124 32.175Q53.003124 34.221874 53.815624 35.159374Q54.628124 36.096874 55.846874 36.096874Q57.05 36.096874 57.8625 35.159374Q58.690624 34.221874 58.690624 32.2375Q58.690624 30.33125 57.846874 29.3625Q57.003124 28.39375 55.815624 28.39375Q54.64375 28.39375 53.815624 29.346874Q53.003124 30.3 53.003124 32.175ZM62.846874 37.55L62.846874 27.175L64.425 27.175L64.425 28.753124Q65.03438 27.64375 65.55 27.3Q66.06563 26.940624 66.675 26.940624Q67.56563 26.940624 68.4875 27.503124L67.87813 29.14375Q67.2375 28.753124 66.59688 28.753124Q66.01875 28.753124 65.55 29.1125Q65.09688 29.45625 64.89375 30.065624Q64.6125 31.003124 64.6125 32.1125L64.6125 37.55L62.846874 37.55ZM76.65938 37.55L76.65938 36.01875Q75.45625 37.784374 73.37813 37.784374Q72.45625 37.784374 71.65938 37.440624Q70.8625 37.08125 70.47188 36.55Q70.09688 36.01875 69.94063 35.2375Q69.83125 34.721874 69.83125 33.596874L69.83125 27.175L71.58125 27.175L71.58125 32.925Q71.58125 34.3 71.69063 34.784374Q71.8625 35.471874 72.39375 35.878124Q72.94063 36.26875 73.72188 36.26875Q74.51875 36.26875 75.20625 35.8625Q75.90938 35.45625 76.19063 34.76875Q76.4875 34.065624 76.4875 32.7375L76.4875 27.175L78.2375 27.175L78.2375 37.55L76.65938 37.55ZM79.8625 37.55L79.8625 27.175L81.45625 27.175L81.45625 28.659374Q82.59688 26.940624 84.75313 26.940624Q85.69063 26.940624 86.47188 27.284374Q87.26875 27.6125 87.65938 28.159374Q88.05 28.70625 88.20625 29.45625Q88.3 29.95625 88.3 31.175L88.3 37.55L86.53438 37.55L86.53438 31.2375Q86.53438 30.159374 86.33125 29.628124Q86.12813 29.096874 85.59688 28.784374Q85.08125 28.471874 84.37813 28.471874Q83.25313 28.471874 82.44063 29.190624Q81.62813 29.89375 81.62813 31.878124L81.62813 37.55L79.8625 37.55ZM96.59688 37.55L96.59688 36.2375Q95.6125 37.784374 93.69063 37.784374Q92.45625 37.784374 91.40938 37.096874Q90.37813 36.409374 89.8 35.190624Q89.2375 33.971874 89.2375 32.378124Q89.2375 30.815624 89.75313 29.55Q90.26875 28.284374 91.3 27.6125Q92.34688 26.940624 93.6125 26.940624Q94.55 26.940624 95.28438 27.346874Q96.01875 27.7375 96.4875 28.3625L96.4875 23.2375L98.22188 23.2375L98.22188 37.55L96.59688 37.55ZM91.03438 32.378124Q91.03438 34.3625 91.87813 35.346874Q92.72188 36.33125 93.8625 36.33125Q95.01875 36.33125 95.81563 35.39375Q96.62813 34.45625 96.62813 32.51875Q96.62813 30.39375 95.8 29.39375Q94.9875 28.39375 93.78438 28.39375Q92.6125 28.39375 91.81563 29.3625Q91.03438 30.315624 91.03438 32.378124ZM113.97188 34.20625L115.78438 34.440624Q115.3625 36.01875 114.19063 36.909374Q113.03438 37.784374 111.22188 37.784374Q108.95625 37.784374 107.6125 36.39375Q106.28438 34.9875 106.28438 32.45625Q106.28438 29.83125 107.62813 28.39375Q108.97188 26.940624 111.12813 26.940624Q113.20625 26.940624 114.51875 28.3625Q115.84688 29.76875 115.84688 32.346874Q115.84688 32.503124 115.83125 32.815624L108.09688 32.815624Q108.19063 34.51875 109.06563 35.425Q109.94063 36.33125 111.2375 36.33125Q112.20625 36.33125 112.87813 35.83125Q113.56563 35.315624 113.97188 34.20625ZM108.19063 31.3625L113.9875 31.3625Q113.87813 30.065624 113.33125 29.409374Q112.4875 28.39375 111.14375 28.39375Q109.94063 28.39375 109.1125 29.20625Q108.28438 30.003124 108.19063 31.3625ZM117.87813 25.253124L117.87813 23.2375L119.64375 23.2375L119.64375 25.253124L117.87813 25.253124ZM117.87813 37.55L117.87813 27.175L119.64375 27.175L119.64375 37.55L117.87813 37.55ZM121.8625 37.55L121.8625 27.175L123.45625 27.175L123.45625 28.659374Q124.59688 26.940624 126.75313 26.940624Q127.69063 26.940624 128.47188 27.284374Q129.26875 27.6125 129.65938 28.159374Q130.05 28.70625 130.20625 29.45625Q130.3 29.95625 130.3 31.175L130.3 37.55L128.53438 37.55L128.53438 31.2375Q128.53438 30.159374 128.33125 29.628124Q128.12813 29.096874 127.59688 28.784374Q127.08125 28.471874 126.37813 28.471874Q125.25313 28.471874 124.44063 29.190624Q123.62813 29.89375 123.62813 31.878124L123.62813 37.55L121.8625 37.55ZM138.97188 34.20625L140.78438 34.440624Q140.3625 36.01875 139.19063 36.909374Q138.03438 37.784374 136.22188 37.784374Q133.95625 37.784374 132.6125 36.39375Q131.28438 34.9875 131.28438 32.45625Q131.28438 29.83125 132.62813 28.39375Q133.97188 26.940624 136.12813 26.940624Q138.20625 26.940624 139.51875 28.3625Q140.84688 29.76875 140.84688 32.346874Q140.84688 32.503124 140.83125 32.815624L133.09688 32.815624Q133.19063 34.51875 134.06563 35.425Q134.94063 36.33125 136.2375 36.33125Q137.20625 36.33125 137.87813 35.83125Q138.56563 35.315624 138.97188 34.20625ZM133.19063 31.3625L138.9875 31.3625Q138.87813 30.065624 138.33125 29.409374Q137.4875 28.39375 136.14375 28.39375Q134.94063 28.39375 134.1125 29.20625Q133.28438 30.003124 133.19063 31.3625ZM142.84688 37.55L142.84688 27.175L144.425 27.175L144.425 28.753124Q145.03438 27.64375 145.55 27.3Q146.06563 26.940624 146.675 26.940624Q147.56563 26.940624 148.4875 27.503124L147.87813 29.14375Q147.2375 28.753124 146.59688 28.753124Q146.01875 28.753124 145.55 29.1125Q145.09688 29.45625 144.89375 30.065624Q144.6125 31.003124 144.6125 32.1125L144.6125 37.55L142.84688 37.55ZM155.8625 37.55L155.8625 27.175L157.45625 27.175L157.45625 28.659374Q158.59688 26.940624 160.75313 26.940624Q161.69063 26.940624 162.47188 27.284374Q163.26875 27.6125 163.65938 28.159374Q164.05 28.70625 164.20625 29.45625Q164.3 29.95625 164.3 31.175L164.3 37.55L162.53438 37.55L162.53438 31.2375Q162.53438 30.159374 162.33125 29.628124Q162.12813 29.096874 161.59688 28.784374Q161.08125 28.471874 160.37813 28.471874Q159.25313 28.471874 158.44063 29.190624Q157.62813 29.89375 157.62813 31.878124L157.62813 37.55L155.8625 37.55ZM172.97188 34.20625L174.78438 34.440624Q174.3625 36.01875 173.19063 36.909374Q172.03438 37.784374 170.22188 37.784374Q167.95625 37.784374 166.6125 36.39375Q165.28438 34.9875 165.28438 32.45625Q165.28438 29.83125 166.62813 28.39375Q167.97188 26.940624 170.12813 26.940624Q172.20625 26.940624 173.51875 28.3625Q174.84688 29.76875 174.84688 32.346874Q174.84688 32.503124 174.83125 32.815624L167.09688 32.815624Q167.19063 34.51875 168.06563 35.425Q168.94063 36.33125 170.2375 36.33125Q171.20625 36.33125 171.87813 35.83125Q172.56563 35.315624 172.97188 34.20625ZM167.19063 31.3625L172.9875 31.3625Q172.87813 30.065624 172.33125 29.409374Q171.4875 28.39375 170.14375 28.39375Q168.94063 28.39375 168.1125 29.20625Q167.28438 30.003124 167.19063 31.3625ZM176.55 38.409374L178.25313 38.659374Q178.3625 39.45625 178.84688 39.815624Q179.50313 40.3 180.64375 40.3Q181.8625 40.3 182.51875 39.815624Q183.19063 39.33125 183.425 38.45625Q183.56563 37.909374 183.55 36.190624Q182.39375 37.55 180.675 37.55Q178.53438 37.55 177.3625 36.003124Q176.19063 34.45625 176.19063 32.3Q176.19063 30.815624 176.72188 29.565624Q177.26875 28.315624 178.28438 27.628124Q179.31563 26.940624 180.69063 26.940624Q182.51875 26.940624 183.72188 28.425L183.72188 27.175L185.33125 27.175L185.33125 36.14375Q185.33125 38.565624 184.83125 39.565624Q184.34688 40.58125 183.26875 41.159374Q182.20625 41.753124 180.64375 41.753124Q178.8 41.753124 177.64375 40.925Q176.50313 40.096874 176.55 38.409374ZM178.00313 32.175Q178.00313 34.221874 178.81563 35.159374Q179.62813 36.096874 180.84688 36.096874Q182.05 36.096874 182.8625 35.159374Q183.69063 34.221874 183.69063 32.2375Q183.69063 30.33125 182.84688 29.3625Q182.00313 28.39375 180.81563 28.39375Q179.64375 28.39375 178.81563 29.346874Q178.00313 30.3 178.00313 32.175ZM194.64375 36.26875Q193.65938 37.096874 192.75313 37.440624Q191.84688 37.784374 190.81563 37.784374Q189.1125 37.784374 188.19063 36.95625Q187.26875 36.1125 187.26875 34.815624Q187.26875 34.05 187.6125 33.425Q187.97188 32.8 188.53438 32.425Q189.09688 32.034374 189.8 31.83125Q190.31563 31.70625 191.3625 31.565624Q193.4875 31.315624 194.4875 30.971874Q194.50313 30.6125 194.50313 30.503124Q194.50313 29.440624 194.00313 28.9875Q193.33125 28.39375 192.00313 28.39375Q190.75313 28.39375 190.15938 28.83125Q189.58125 29.26875 189.3 30.378124L187.58125 30.14375Q187.81563 29.034374 188.34688 28.3625Q188.87813 27.675 189.89375 27.315624Q190.90938 26.940624 192.25313 26.940624Q193.58125 26.940624 194.40938 27.253124Q195.2375 27.565624 195.62813 28.05Q196.01875 28.51875 196.175 29.2375Q196.26875 29.690624 196.26875 30.8625L196.26875 33.20625Q196.26875 35.659374 196.37813 36.315624Q196.4875 36.95625 196.83125 37.55L194.9875 37.55Q194.72188 37.003124 194.64375 36.26875ZM194.4875 32.346874Q193.53438 32.7375 191.6125 33.003124Q190.53438 33.159374 190.08125 33.3625Q189.64375 33.55 189.39375 33.925Q189.14375 34.3 189.14375 34.76875Q189.14375 35.471874 189.675 35.940624Q190.20625 36.409374 191.2375 36.409374Q192.25313 36.409374 193.03438 35.971874Q193.83125 35.51875 194.20625 34.753124Q194.4875 34.14375 194.4875 32.9875L194.4875 32.346874ZM202.70625 35.971874L202.95625 37.534374Q202.22188 37.690624 201.62813 37.690624Q200.675 37.690624 200.14375 37.39375Q199.62813 37.08125 199.40938 36.596874Q199.19063 36.096874 199.19063 34.51875L199.19063 28.55L197.90938 28.55L197.90938 27.175L199.19063 27.175L199.19063 24.6125L200.94063 23.55L200.94063 27.175L202.70625 27.175L202.70625 28.55L200.94063 28.55L200.94063 34.6125Q200.94063 35.3625 201.03438 35.58125Q201.12813 35.784374 201.33125 35.925Q201.55 36.05 201.94063 36.05Q202.22188 36.05 202.70625 35.971874ZM204.87813 25.253124L204.87813 23.2375L206.64375 23.2375L206.64375 25.253124L204.87813 25.253124ZM204.87813 37.55L204.87813 27.175L206.64375 27.175L206.64375 37.55L204.87813 37.55ZM211.75313 37.55L207.8 27.175L209.65938 27.175L211.89375 33.39375Q212.25313 34.39375 212.55 35.471874Q212.78438 34.659374 213.20625 33.503124L215.50313 27.175L217.31563 27.175L213.39375 37.55L211.75313 37.55ZM224.97188 34.20625L226.78438 34.440624Q226.3625 36.01875 225.19063 36.909374Q224.03438 37.784374 222.22188 37.784374Q219.95625 37.784374 218.6125 36.39375Q217.28438 34.9875 217.28438 32.45625Q217.28438 29.83125 218.62813 28.39375Q219.97188 26.940624 222.12813 26.940624Q224.20625 26.940624 225.51875 28.3625Q226.84688 29.76875 226.84688 32.346874Q226.84688 32.503124 226.83125 32.815624L219.09688 32.815624Q219.19063 34.51875 220.06563 35.425Q220.94063 36.33125 222.2375 36.33125Q223.20625 36.33125 223.87813 35.83125Q224.56563 35.315624 224.97188 34.20625ZM219.19063 31.3625L224.9875 31.3625Q224.87813 30.065624 224.33125 29.409374Q223.4875 28.39375 222.14375 28.39375Q220.94063 28.39375 220.1125 29.20625Q219.28438 30.003124 219.19063 31.3625ZM228.8625 37.55L228.8625 27.175L230.45625 27.175L230.45625 28.659374Q231.59688 26.940624 233.75313 26.940624Q234.69063 26.940624 235.47188 27.284374Q236.26875 27.6125 236.65938 28.159374Q237.05 28.70625 237.20625 29.45625Q237.3 29.95625 237.3 31.175L237.3 37.55L235.53438 37.55L235.53438 31.2375Q235.53438 30.159374 235.33125 29.628124Q235.12813 29.096874 234.59688 28.784374Q234.08125 28.471874 233.37813 28.471874Q232.25313 28.471874 231.44063 29.190624Q230.62813 29.89375 230.62813 31.878124L230.62813 37.55L228.8625 37.55ZM245.12813 37.55L245.12813 23.2375L251.47188 23.2375Q253.37813 23.2375 254.37813 23.628124Q255.37813 24.003124 255.97188 24.9875Q256.5656 25.95625 256.5656 27.14375Q256.5656 28.659374 255.58125 29.70625Q254.59688 30.753124 252.53438 31.034374Q253.28438 31.39375 253.675 31.753124Q254.50313 32.503124 255.25313 33.659374L257.7375 37.55L255.3625 37.55L253.45625 34.565624Q252.62813 33.284374 252.09688 32.596874Q251.56563 31.909374 251.12813 31.64375Q250.70625 31.3625 250.26875 31.253124Q249.94063 31.190624 249.22188 31.190624L247.01875 31.190624L247.01875 37.55L245.12813 37.55ZM247.01875 29.55L251.09688 29.55Q252.39375 29.55 253.1125 29.284374Q253.84688 29.01875 254.22188 28.425Q254.6125 27.83125 254.6125 27.14375Q254.6125 26.128124 253.87813 25.471874Q253.14375 24.815624 251.55 24.815624L247.01875 24.815624L247.01875 29.55ZM265.97186 34.20625L267.78436 34.440624Q267.3625 36.01875 266.1906 36.909374Q265.03436 37.784374 263.22186 37.784374Q260.95624 37.784374 259.6125 36.39375Q258.28436 34.9875 258.28436 32.45625Q258.28436 29.83125 259.6281 28.39375Q260.97186 26.940624 263.1281 26.940624Q265.20624 26.940624 266.51874 28.3625Q267.84686 29.76875 267.84686 32.346874Q267.84686 32.503124 267.83124 32.815624L260.09686 32.815624Q260.1906 34.51875 261.0656 35.425Q261.9406 36.33125 263.2375 36.33125Q264.20624 36.33125 264.8781 35.83125Q265.5656 35.315624 265.97186 34.20625ZM260.1906 31.3625L265.9875 31.3625Q265.8781 30.065624 265.33124 29.409374Q264.4875 28.39375 263.14374 28.39375Q261.9406 28.39375 261.1125 29.20625Q260.28436 30.003124 260.1906 31.3625ZM268.9406 37.55L268.9406 36.128124L275.55 28.55Q274.425 28.596874 273.5656 28.596874L269.33124 28.596874L269.33124 27.175L277.8156 27.175L277.8156 28.346874L272.1906 34.925L271.1125 36.128124Q272.28436 36.034374 273.33124 36.034374L278.1281 36.034374L278.1281 37.55L268.9406 37.55ZM285.97186 34.20625L287.78436 34.440624Q287.3625 36.01875 286.1906 36.909374Q285.03436 37.784374 283.22186 37.784374Q280.95624 37.784374 279.6125 36.39375Q278.28436 34.9875 278.28436 32.45625Q278.28436 29.83125 279.6281 28.39375Q280.97186 26.940624 283.1281 26.940624Q285.20624 26.940624 286.51874 28.3625Q287.84686 29.76875 287.84686 32.346874Q287.84686 32.503124 287.83124 32.815624L280.09686 32.815624Q280.1906 34.51875 281.0656 35.425Q281.9406 36.33125 283.2375 36.33125Q284.20624 36.33125 284.8781 35.83125Q285.5656 35.315624 285.97186 34.20625ZM280.1906 31.3625L285.9875 31.3625Q285.8781 30.065624 285.33124 29.409374Q284.4875 28.39375 283.14374 28.39375Q281.9406 28.39375 281.1125 29.20625Q280.28436 30.003124 280.1906 31.3625ZM289.8625 37.55L289.8625 27.175L291.45624 27.175L291.45624 28.659374Q292.59686 26.940624 294.7531 26.940624Q295.6906 26.940624 296.47186 27.284374Q297.26874 27.6125 297.65936 28.159374Q298.05 28.70625 298.20624 29.45625Q298.3 29.95625 298.3 31.175L298.3 37.55L296.53436 37.55L296.53436 31.2375Q296.53436 30.159374 296.33124 29.628124Q296.1281 29.096874 295.59686 28.784374Q295.08124 28.471874 294.3781 28.471874Q293.2531 28.471874 292.4406 29.190624Q291.6281 29.89375 291.6281 31.878124L291.6281 37.55L289.8625 37.55ZM299.15936 34.45625L300.90936 34.175Q301.05 35.221874 301.72186 35.784374Q302.39374 36.33125 303.59686 36.33125Q304.8 36.33125 305.3781 35.846874Q305.97186 35.346874 305.97186 34.690624Q305.97186 34.096874 305.45624 33.753124Q305.09686 33.51875 303.65936 33.159374Q301.72186 32.659374 300.97186 32.315624Q300.2375 31.95625 299.84686 31.33125Q299.45624 30.690624 299.45624 29.925Q299.45624 29.2375 299.76874 28.64375Q300.09686 28.05 300.64374 27.659374Q301.05 27.3625 301.7531 27.159374Q302.47186 26.940624 303.28436 26.940624Q304.5031 26.940624 305.425 27.3Q306.34686 27.64375 306.78436 28.253124Q307.22186 28.846874 307.39374 29.846874L305.675 30.08125Q305.55 29.284374 304.9875 28.846874Q304.425 28.39375 303.40936 28.39375Q302.1906 28.39375 301.675 28.8Q301.15936 29.190624 301.15936 29.721874Q301.15936 30.065624 301.3781 30.346874Q301.58124 30.628124 302.05 30.815624Q302.3156 30.909374 303.59686 31.253124Q305.47186 31.753124 306.20624 32.08125Q306.9406 32.39375 307.3625 33.003124Q307.78436 33.596874 307.78436 34.503124Q307.78436 35.378124 307.26874 36.159374Q306.7531 36.940624 305.78436 37.3625Q304.8156 37.784374 303.59686 37.784374Q301.58124 37.784374 300.51874 36.940624Q299.45624 36.096874 299.15936 34.45625ZM309.8781 25.253124L309.8781 23.2375L311.64374 23.2375L311.64374 25.253124L309.8781 25.253124ZM309.8781 37.55L309.8781 27.175L311.64374 27.175L311.64374 37.55L309.8781 37.55ZM313.22186 32.3625Q313.22186 29.4875 314.8156 28.096874Q316.15936 26.940624 318.08124 26.940624Q320.22186 26.940624 321.5656 28.346874Q322.925 29.753124 322.925 32.221874Q322.925 34.221874 322.33124 35.378124Q321.7375 36.51875 320.58124 37.159374Q319.4406 37.784374 318.08124 37.784374Q315.89374 37.784374 314.55 36.39375Q313.22186 34.9875 313.22186 32.3625ZM315.01874 32.3625Q315.01874 34.3625 315.8781 35.346874Q316.7531 36.33125 318.08124 36.33125Q319.39374 36.33125 320.2531 35.346874Q321.1281 34.346874 321.1281 32.3Q321.1281 30.378124 320.2531 29.39375Q319.3781 28.39375 318.08124 28.39375Q316.7531 28.39375 315.8781 29.39375Q315.01874 30.378124 315.01874 32.3625ZM324.8625 37.55L324.8625 27.175L326.45624 27.175L326.45624 28.659374Q327.59686 26.940624 329.7531 26.940624Q330.6906 26.940624 331.47186 27.284374Q332.26874 27.6125 332.65936 28.159374Q333.05 28.70625 333.20624 29.45625Q333.3 29.95625 333.3 31.175L333.3 37.55L331.53436 37.55L331.53436 31.2375Q331.53436 30.159374 331.33124 29.628124Q331.1281 29.096874 330.59686 28.784374Q330.08124 28.471874 329.3781 28.471874Q328.2531 28.471874 327.4406 29.190624Q326.6281 29.89375 326.6281 31.878124L326.6281 37.55L324.8625 37.55ZM347.59686 37.55L347.59686 36.2375Q346.6125 37.784374 344.6906 37.784374Q343.45624 37.784374 342.40936 37.096874Q341.3781 36.409374 340.8 35.190624Q340.2375 33.971874 340.2375 32.378124Q340.2375 30.815624 340.7531 29.55Q341.26874 28.284374 342.3 27.6125Q343.34686 26.940624 344.6125 26.940624Q345.55 26.940624 346.28436 27.346874Q347.01874 27.7375 347.4875 28.3625L347.4875 23.2375L349.22186 23.2375L349.22186 37.55L347.59686 37.55ZM342.03436 32.378124Q342.03436 34.3625 342.8781 35.346874Q343.72186 36.33125 344.8625 36.33125Q346.01874 36.33125 346.8156 35.39375Q347.6281 34.45625 347.6281 32.51875Q347.6281 30.39375 346.8 29.39375Q345.9875 28.39375 344.78436 28.39375Q343.6125 28.39375 342.8156 29.3625Q342.03436 30.315624 342.03436 32.378124ZM358.97186 34.20625L360.78436 34.440624Q360.3625 36.01875 359.1906 36.909374Q358.03436 37.784374 356.22186 37.784374Q353.95624 37.784374 352.6125 36.39375Q351.28436 34.9875 351.28436 32.45625Q351.28436 29.83125 352.6281 28.39375Q353.97186 26.940624 356.1281 26.940624Q358.20624 26.940624 359.51874 28.3625Q360.84686 29.76875 360.84686 32.346874Q360.84686 32.503124 360.83124 32.815624L353.09686 32.815624Q353.1906 34.51875 354.0656 35.425Q354.9406 36.33125 356.2375 36.33125Q357.20624 36.33125 357.8781 35.83125Q358.5656 35.315624 358.97186 34.20625ZM353.1906 31.3625L358.9875 31.3625Q358.8781 30.065624 358.33124 29.409374Q357.4875 28.39375 356.14374 28.39375Q354.9406 28.39375 354.1125 29.20625Q353.28436 30.003124 353.1906 31.3625ZM362.8625 37.55L362.8625 27.175L364.45624 27.175L364.45624 28.659374Q365.59686 26.940624 367.7531 26.940624Q368.6906 26.940624 369.47186 27.284374Q370.26874 27.6125 370.65936 28.159374Q371.05 28.70625 371.20624 29.45625Q371.3 29.95625 371.3 31.175L371.3 37.55L369.53436 37.55L369.53436 31.2375Q369.53436 30.159374 369.33124 29.628124Q369.1281 29.096874 368.59686 28.784374Q368.08124 28.471874 367.3781 28.471874Q366.2531 28.471874 365.4406 29.190624Q364.6281 29.89375 364.6281 31.878124L364.6281 37.55L362.8625 37.55ZM379.01874 37.55L379.01874 23.2375L380.90936 23.2375L380.90936 30.33125L388.01874 23.2375L390.58124 23.2375L384.58124 29.034374L390.84686 37.55L388.34686 37.55L383.2531 30.3L380.90936 32.58125L380.90936 37.55L379.01874 37.55ZM398.64374 36.26875Q397.65936 37.096874 396.7531 37.440624Q395.84686 37.784374 394.8156 37.784374Q393.1125 37.784374 392.1906 36.95625Q391.26874 36.1125 391.26874 34.815624Q391.26874 34.05 391.6125 33.425Q391.97186 32.8 392.53436 32.425Q393.09686 32.034374 393.8 31.83125Q394.3156 31.70625 395.3625 31.565624Q397.4875 31.315624 398.4875 30.971874Q398.5031 30.6125 398.5031 30.503124Q398.5031 29.440624 398.0031 28.9875Q397.33124 28.39375 396.0031 28.39375Q394.7531 28.39375 394.15936 28.83125Q393.58124 29.26875 393.3 30.378124L391.58124 30.14375Q391.8156 29.034374 392.34686 28.3625Q392.8781 27.675 393.89374 27.315624Q394.90936 26.940624 396.2531 26.940624Q397.58124 26.940624 398.40936 27.253124Q399.2375 27.565624 399.6281 28.05Q400.01874 28.51875 400.175 29.2375Q400.26874 29.690624 400.26874 30.8625L400.26874 33.20625Q400.26874 35.659374 400.3781 36.315624Q400.4875 36.95625 400.83124 37.55L398.9875 37.55Q398.72186 37.003124 398.64374 36.26875ZM398.4875 32.346874Q397.53436 32.7375 395.6125 33.003124Q394.53436 33.159374 394.08124 33.3625Q393.64374 33.55 393.39374 33.925Q393.14374 34.3 393.14374 34.76875Q393.14374 35.471874 393.675 35.940624Q394.20624 36.409374 395.2375 36.409374Q396.2531 36.409374 397.03436 35.971874Q397.83124 35.51875 398.20624 34.753124Q398.4875 34.14375 398.4875 32.9875L398.4875 32.346874ZM409.65936 37.55L409.65936 36.01875Q408.45624 37.784374 406.3781 37.784374Q405.45624 37.784374 404.65936 37.440624Q403.8625 37.08125 403.47186 36.55Q403.09686 36.01875 402.9406 35.2375Q402.83124 34.721874 402.83124 33.596874L402.83124 27.175L404.58124 27.175L404.58124 32.925Q404.58124 34.3 404.6906 34.784374Q404.8625 35.471874 405.39374 35.878124Q405.9406 36.26875 406.72186 36.26875Q407.51874 36.26875 408.20624 35.8625Q408.90936 35.45625 409.1906 34.76875Q409.4875 34.065624 409.4875 32.7375L409.4875 27.175L411.2375 27.175L411.2375 37.55L409.65936 37.55ZM413.28436 37.55L413.28436 28.55L411.7375 28.55L411.7375 27.175L413.28436 27.175L413.28436 26.08125Q413.28436 25.034374 413.47186 24.51875Q413.72186 23.83125 414.3625 23.409374Q415.0031 22.9875 416.15936 22.9875Q416.90936 22.9875 417.8 23.159374L417.53436 24.690624Q416.9875 24.596874 416.5031 24.596874Q415.70624 24.596874 415.3625 24.940624Q415.03436 25.284374 415.03436 26.221874L415.03436 27.175L417.0656 27.175L417.0656 28.55L415.03436 28.55L415.03436 37.55L413.28436 37.55ZM431.64374 36.26875Q430.65936 37.096874 429.7531 37.440624Q428.84686 37.784374 427.8156 37.784374Q426.1125 37.784374 425.1906 36.95625Q424.26874 36.1125 424.26874 34.815624Q424.26874 34.05 424.6125 33.425Q424.97186 32.8 425.53436 32.425Q426.09686 32.034374 426.8 31.83125Q427.3156 31.70625 428.3625 31.565624Q430.4875 31.315624 431.4875 30.971874Q431.5031 30.6125 431.5031 30.503124Q431.5031 29.440624 431.0031 28.9875Q430.33124 28.39375 429.0031 28.39375Q427.7531 28.39375 427.15936 28.83125Q426.58124 29.26875 426.3 30.378124L424.58124 30.14375Q424.8156 29.034374 425.34686 28.3625Q425.8781 27.675 426.89374 27.315624Q427.90936 26.940624 429.2531 26.940624Q430.58124 26.940624 431.40936 27.253124Q432.2375 27.565624 432.6281 28.05Q433.01874 28.51875 433.175 29.2375Q433.26874 29.690624 433.26874 30.8625L433.26874 33.20625Q433.26874 35.659374 433.3781 36.315624Q433.4875 36.95625 433.83124 37.55L431.9875 37.55Q431.72186 37.003124 431.64374 36.26875ZM431.4875 32.346874Q430.53436 32.7375 428.6125 33.003124Q427.53436 33.159374 427.08124 33.3625Q426.64374 33.55 426.39374 33.925Q426.14374 34.3 426.14374 34.76875Q426.14374 35.471874 426.675 35.940624Q427.20624 36.409374 428.2375 36.409374Q429.2531 36.409374 430.03436 35.971874Q430.83124 35.51875 431.20624 34.753124Q431.4875 34.14375 431.4875 32.9875L431.4875 32.346874ZM437.4875 37.55L435.8625 37.55L435.8625 23.2375L437.6125 23.2375L437.6125 28.346874Q438.7375 26.940624 440.45624 26.940624Q441.40936 26.940624 442.26874 27.33125Q443.1281 27.721874 443.675 28.425Q444.22186 29.1125 444.53436 30.096874Q444.84686 31.08125 444.84686 32.20625Q444.84686 34.878124 443.53436 36.33125Q442.22186 37.784374 440.3781 37.784374Q438.53436 37.784374 437.4875 36.253124L437.4875 37.55ZM437.47186 32.284374Q437.47186 34.14375 437.97186 34.9875Q438.8156 36.33125 440.22186 36.33125Q441.3781 36.33125 442.20624 35.33125Q443.05 34.33125 443.05 32.346874Q443.05 30.315624 442.2375 29.3625Q441.4406 28.39375 440.3 28.39375Q439.14374 28.39375 438.3 29.39375Q437.47186 30.39375 437.47186 32.284374ZM446.55 38.409374L448.2531 38.659374Q448.3625 39.45625 448.84686 39.815624Q449.5031 40.3 450.64374 40.3Q451.8625 40.3 452.51874 39.815624Q453.1906 39.33125 453.425 38.45625Q453.5656 37.909374 453.55 36.190624Q452.39374 37.55 450.675 37.55Q448.53436 37.55 447.3625 36.003124Q446.1906 34.45625 446.1906 32.3Q446.1906 30.815624 446.72186 29.565624Q447.26874 28.315624 448.28436 27.628124Q449.3156 26.940624 450.6906 26.940624Q452.51874 26.940624 453.72186 28.425L453.72186 27.175L455.33124 27.175L455.33124 36.14375Q455.33124 38.565624 454.83124 39.565624Q454.34686 40.58125 453.26874 41.159374Q452.20624 41.753124 450.64374 41.753124Q448.8 41.753124 447.64374 40.925Q446.5031 40.096874 446.55 38.409374ZM448.0031 32.175Q448.0031 34.221874 448.8156 35.159374Q449.6281 36.096874 450.84686 36.096874Q452.05 36.096874 452.8625 35.159374Q453.6906 34.221874 453.6906 32.2375Q453.6906 30.33125 452.84686 29.3625Q452.0031 28.39375 450.8156 28.39375Q449.64374 28.39375 448.8156 29.346874Q448.0031 30.3 448.0031 32.175ZM464.97186 34.20625L466.78436 34.440624Q466.3625 36.01875 465.1906 36.909374Q464.03436 37.784374 462.22186 37.784374Q459.95624 37.784374 458.6125 36.39375Q457.28436 34.9875 457.28436 32.45625Q457.28436 29.83125 458.6281 28.39375Q459.97186 26.940624 462.1281 26.940624Q464.20624 26.940624 465.51874 28.3625Q466.84686 29.76875 466.84686 32.346874Q466.84686 32.503124 466.83124 32.815624L459.09686 32.815624Q459.1906 34.51875 460.0656 35.425Q460.9406 36.33125 462.2375 36.33125Q463.20624 36.33125 463.8781 35.83125Q464.5656 35.315624 464.97186 34.20625ZM459.1906 31.3625L464.9875 31.3625Q464.8781 30.065624 464.33124 29.409374Q463.4875 28.39375 462.14374 28.39375Q460.9406 28.39375 460.1125 29.20625Q459.28436 30.003124 459.1906 31.3625ZM470.4875 37.55L468.8625 37.55L468.8625 23.2375L470.6125 23.2375L470.6125 28.346874Q471.7375 26.940624 473.45624 26.940624Q474.40936 26.940624 475.26874 27.33125Q476.1281 27.721874 476.675 28.425Q477.22186 29.1125 477.53436 30.096874Q477.84686 31.08125 477.84686 32.20625Q477.84686 34.878124 476.53436 36.33125Q475.22186 37.784374 473.3781 37.784374Q471.53436 37.784374 470.4875 36.253124L470.4875 37.55ZM470.47186 32.284374Q470.47186 34.14375 470.97186 34.9875Q471.8156 36.33125 473.22186 36.33125Q474.3781 36.33125 475.20624 35.33125Q476.05 34.33125 476.05 32.346874Q476.05 30.315624 475.2375 29.3625Q474.4406 28.39375 473.3 28.39375Q472.14374 28.39375 471.3 29.39375Q470.47186 30.39375 470.47186 32.284374ZM479.84686 37.55L479.84686 27.175L481.425 27.175L481.425 28.753124Q482.03436 27.64375 482.55 27.3Q483.0656 26.940624 483.675 26.940624Q484.5656 26.940624 485.4875 27.503124L484.8781 29.14375Q484.2375 28.753124 483.59686 28.753124Q483.01874 28.753124 482.55 29.1125Q482.09686 29.45625 481.89374 30.065624Q481.6125 31.003124 481.6125 32.1125L481.6125 37.55L479.84686 37.55ZM486.22186 32.3625Q486.22186 29.4875 487.8156 28.096874Q489.15936 26.940624 491.08124 26.940624Q493.22186 26.940624 494.5656 28.346874Q495.925 29.753124 495.925 32.221874Q495.925 34.221874 495.33124 35.378124Q494.7375 36.51875 493.58124 37.159374Q492.4406 37.784374 491.08124 37.784374Q488.89374 37.784374 487.55 36.39375Q486.22186 34.9875 486.22186 32.3625ZM488.01874 32.3625Q488.01874 34.3625 488.8781 35.346874Q489.7531 36.33125 491.08124 36.33125Q492.39374 36.33125 493.2531 35.346874Q494.1281 34.346874 494.1281 32.3Q494.1281 30.378124 493.2531 29.39375Q492.3781 28.39375 491.08124 28.39375Q489.7531 28.39375 488.8781 29.39375Q488.01874 30.378124 488.01874 32.3625ZM504.64374 33.753124L506.3625 33.971874Q506.08124 35.76875 504.90936 36.784374Q503.7531 37.784374 502.05 37.784374Q499.925 37.784374 498.6281 36.39375Q497.33124 35.003124 497.33124 32.409374Q497.33124 30.721874 497.8781 29.471874Q498.4406 28.20625 499.58124 27.58125Q500.72186 26.940624 502.0656 26.940624Q503.7531 26.940624 504.8156 27.8Q505.89374 28.659374 506.20624 30.221874L504.4875 30.4875Q504.2531 29.440624 503.6281 28.925Q503.0031 28.39375 502.1281 28.39375Q500.8 28.39375 499.97186 29.346874Q499.14374 30.3 499.14374 32.346874Q499.14374 34.440624 499.9406 35.39375Q500.7375 36.33125 502.03436 36.33125Q503.0656 36.33125 503.7531 35.70625Q504.45624 35.065624 504.64374 33.753124ZM507.8625 37.55L507.8625 23.2375L509.6281 23.2375L509.6281 28.3625Q510.8625 26.940624 512.7375 26.940624Q513.8781 26.940624 514.72186 27.39375Q515.58124 27.846874 515.9406 28.659374Q516.3156 29.45625 516.3156 30.971874L516.3156 37.55L514.5656 37.55L514.5656 30.971874Q514.5656 29.659374 513.9875 29.065624Q513.40936 28.45625 512.3781 28.45625Q511.59686 28.45625 510.89374 28.8625Q510.20624 29.26875 509.90936 29.971874Q509.6281 30.659374 509.6281 31.878124L509.6281 37.55L507.8625 37.55ZM524.97186 34.20625L526.78436 34.440624Q526.3625 36.01875 525.1906 36.909374Q524.03436 37.784374 522.22186 37.784374Q519.95624 37.784374 518.6125 36.39375Q517.28436 34.9875 517.28436 32.45625Q517.28436 29.83125 518.6281 28.39375Q519.97186 26.940624 522.1281 26.940624Q524.20624 26.940624 525.51874 28.3625Q526.84686 29.76875 526.84686 32.346874Q526.84686 32.503124 526.83124 32.815624L519.09686 32.815624Q519.1906 34.51875 520.0656 35.425Q520.9406 36.33125 522.2375 36.33125Q523.20624 36.33125 523.8781 35.83125Q524.5656 35.315624 524.97186 34.20625ZM519.1906 31.3625L524.9875 31.3625Q524.8781 30.065624 524.33124 29.409374Q523.4875 28.39375 522.14374 28.39375Q520.9406 28.39375 520.1125 29.20625Q519.28436 30.003124 519.1906 31.3625ZM528.8625 37.55L528.8625 27.175L530.45624 27.175L530.45624 28.659374Q531.59686 26.940624 533.7531 26.940624Q534.6906 26.940624 535.47186 27.284374Q536.26874 27.6125 536.65936 28.159374Q537.05 28.70625 537.20624 29.45625Q537.3 29.95625 537.3 31.175L537.3 37.55L535.53436 37.55L535.53436 31.2375Q535.53436 30.159374 535.33124 29.628124Q535.1281 29.096874 534.59686 28.784374Q534.08124 28.471874 533.3781 28.471874Q532.2531 28.471874 531.4406 29.190624Q530.6281 29.89375 530.6281 31.878124L530.6281 37.55L528.8625 37.55Z" fill-rule="nonzero"/></svg>