<svg version="1.1" viewBox="0.0 0.0 600.0 371.0" fill="none" stroke="none" stroke-linecap="square" stroke-miterlimit="10" width="600" height="371" xmlns:xlink="http://www.w3.org/1999/xlink" xmlns="http://www.w3.org/2000/svg"><path fill="#ffffff" d="M0 0L600.0 0L600.0 371.0L0 371.0L0 0Z" fill-rule="nonzero"/><path fill="#ea4335" d="M269.06967 349.1991C194.59198 333.36838 144.08932 263.85742 152.0483 188.13298C160.00725 112.40853 223.85843 54.916668 300.0 54.916668L300.0 203.68333Z" fill-rule="nonzero"/><path fill="#4285f4" d="M300.0 54.916668C356.87753 54.916668 408.77713 87.34712 433.7106 138.46832C458.64407 189.58951 452.24704 250.45312 417.22974 295.27322C382.21243 340.09335 324.7043 361.0246 269.06967 349.1991L300.0 203.68333Z" fill-rule="nonzero"/><path fill="#1a1a1a" d="M20.971874 184.4105L18.690624 175.81676L19.8625 175.81676L21.175 181.45738Q21.378124 182.33238 21.534374 183.20738Q21.8625 181.83238 21.925 181.61363L23.55 175.81676L24.925 175.81676L26.159374 180.1605Q26.6125 181.7855 26.83125 183.20738Q26.9875 182.39488 27.253124 181.33238L28.596874 175.81676L29.7375 175.81676L27.39375 184.4105L26.284374 184.4105L24.4875 177.86363Q24.253124 177.05113 24.20625 176.86363Q24.08125 177.44176 23.95625 177.86363L22.14375 184.4105L20.971874 184.4105ZM34.596874 182.4105L35.690624 182.5355Q35.440624 183.48863 34.7375 184.01988Q34.034374 184.55113 32.95625 184.55113Q31.596874 184.55113 30.784374 183.70738Q29.9875 182.86363 29.9875 181.348Q29.9875 179.7855 30.8 178.92613Q31.6125 178.05113 32.89375 178.05113Q34.14375 178.05113 34.925 178.89488Q35.721874 179.73863 35.721874 181.2855Q35.721874 181.37926 35.721874 181.56676L31.08125 181.56676Q31.14375 182.598 31.659374 183.14488Q32.175 183.67613 32.95625 183.67613Q33.534374 183.67613 33.940624 183.37926Q34.3625 183.06676 34.596874 182.4105ZM31.14375 180.70738L34.6125 180.70738Q34.55 179.9105 34.221874 179.51988Q33.70625 178.9105 32.909374 178.9105Q32.175 178.9105 31.675 179.39488Q31.190624 179.87926 31.14375 180.70738ZM37.346874 177.0355L37.346874 175.81676L38.409374 175.81676L38.409374 177.0355L37.346874 177.0355ZM37.346874 184.4105L37.346874 178.19176L38.409374 178.19176L38.409374 184.4105L37.346874 184.4105ZM41.315624 184.4105L40.33125 184.4105L40.33125 175.81676L41.39375 175.81676L41.39375 178.87926Q42.065624 178.05113 43.096874 178.05113Q43.675 178.05113 44.175 178.2855Q44.690624 178.50426 45.01875 178.92613Q45.3625 179.348 45.55 179.94176Q45.7375 180.5355 45.7375 181.20738Q45.7375 182.80113 44.940624 183.67613Q44.14375 184.55113 43.05 184.55113Q41.940624 184.55113 41.315624 183.62926L41.315624 184.4105ZM41.3 181.25426Q41.3 182.36363 41.6125 182.86363Q42.1125 183.67613 42.95625 183.67613Q43.64375 183.67613 44.14375 183.08238Q44.659374 182.48863 44.659374 181.2855Q44.659374 180.06676 44.175 179.48863Q43.690624 178.9105 43.003124 178.9105Q42.315624 178.9105 41.8 179.51988Q41.3 180.11363 41.3 181.25426ZM47.315624 184.4105L47.315624 175.81676L48.378124 175.81676L48.378124 184.4105L47.315624 184.4105ZM50.346874 177.0355L50.346874 175.81676L51.409374 175.81676L51.409374 177.0355L50.346874 177.0355ZM50.346874 184.4105L50.346874 178.19176L51.409374 178.19176L51.409374 184.4105L50.346874 184.4105ZM57.409374 182.12926L58.440624 182.26988Q58.26875 183.33238 57.565624 183.94176Q56.8625 184.55113 55.846874 184.55113Q54.565624 184.55113 53.784374 183.723Q53.01875 182.87926 53.01875 181.31676Q53.01875 180.31676 53.346874 179.56676Q53.690624 178.80113 54.3625 178.42613Q55.05 178.05113 55.8625 178.05113Q56.8625 178.05113 57.503124 178.56676Q58.159374 179.06676 58.346874 180.01988L57.315624 180.17613Q57.175 179.55113 56.8 179.23863Q56.425 178.9105 55.89375 178.9105Q55.096874 178.9105 54.596874 179.48863Q54.096874 180.05113 54.096874 181.2855Q54.096874 182.55113 54.58125 183.11363Q55.065624 183.67613 55.83125 183.67613Q56.45625 183.67613 56.8625 183.30113Q57.284374 182.92613 57.409374 182.12926ZM59.346874 184.4105L59.346874 175.81676L60.39375 175.81676L60.39375 178.89488Q61.128124 178.05113 62.253124 178.05113Q62.95625 178.05113 63.45625 178.33238Q63.971874 178.598 64.19063 179.08238Q64.40938 179.55113 64.40938 180.473L64.40938 184.4105L63.3625 184.4105L63.3625 180.473Q63.3625 179.67613 63.01875 179.31676Q62.675 178.95738 62.05 178.95738Q61.58125 178.95738 61.159374 179.20738Q60.753124 179.44176 60.565624 179.86363Q60.39375 180.26988 60.39375 181.00426L60.39375 184.4105L59.346874 184.4105Z" fill-rule="nonzero"/><path fill="#9e9e9e" d="M22.425 201.4105L22.425 199.348L18.70625 199.348L18.70625 198.37926L22.628124 192.81676L23.4875 192.81676L23.4875 198.37926L24.64375 198.37926L24.64375 199.348L23.4875 199.348L23.4875 201.4105L22.425 201.4105ZM22.425 198.37926L22.425 194.51988L19.7375 198.37926L22.425 198.37926ZM31.51875 194.92613L30.471874 195.00426Q30.33125 194.37926 30.08125 194.098Q29.64375 193.64488 29.01875 193.64488Q28.51875 193.64488 28.128124 193.92613Q27.64375 194.30113 27.346874 195.00426Q27.065624 195.69176 27.05 196.973Q27.425 196.39488 27.971874 196.11363Q28.534374 195.83238 29.14375 195.83238Q30.190624 195.83238 30.925 196.61363Q31.675 197.39488 31.675 198.61363Q31.675 199.42613 31.315624 200.12926Q30.971874 200.81676 30.3625 201.19176Q29.753124 201.55113 28.9875 201.55113Q27.659374 201.55113 26.83125 200.58238Q26.003124 199.61363 26.003124 197.39488Q26.003124 194.89488 26.925 193.76988Q27.721874 192.7855 29.08125 192.7855Q30.096874 192.7855 30.7375 193.36363Q31.39375 193.92613 31.51875 194.92613ZM27.221874 198.62926Q27.221874 199.17613 27.440624 199.67613Q27.675 200.1605 28.08125 200.42613Q28.503124 200.69176 28.971874 200.69176Q29.628124 200.69176 30.1125 200.1605Q30.596874 199.61363 30.596874 198.69176Q30.596874 197.80113 30.1125 197.2855Q29.64375 196.76988 28.925 196.76988Q28.20625 196.76988 27.70625 197.2855Q27.221874 197.80113 27.221874 198.62926ZM33.64375 201.4105L33.64375 200.20738L34.846874 200.20738L34.846874 201.4105L33.64375 201.4105ZM36.1125 193.94176L36.1125 192.92613L41.675 192.92613L41.675 193.75426Q40.8625 194.62926 40.05 196.08238Q39.253124 197.51988 38.815624 199.05113Q38.4875 200.12926 38.409374 201.4105L37.315624 201.4105Q37.33125 200.39488 37.70625 198.95738Q38.096874 197.51988 38.8 196.19176Q39.51875 194.86363 40.33125 193.94176L36.1125 193.94176ZM43.253124 194.87926Q43.253124 193.95738 43.70625 193.31676Q44.175 192.67613 45.05 192.67613Q45.8625 192.67613 46.39375 193.25426Q46.925 193.83238 46.925 194.94176Q46.925 196.0355 46.378124 196.62926Q45.846874 197.20738 45.065624 197.20738Q44.284374 197.20738 43.76875 196.62926Q43.253124 196.05113 43.253124 194.87926ZM45.08125 193.39488Q44.690624 193.39488 44.425 193.73863Q44.175 194.08238 44.175 194.98863Q44.175 195.81676 44.425 196.1605Q44.690624 196.48863 45.08125 196.48863Q45.4875 196.48863 45.7375 196.14488Q46.003124 195.80113 46.003124 194.9105Q46.003124 194.06676 45.7375 193.73863Q45.471874 193.39488 45.08125 193.39488ZM45.08125 201.723L49.784374 192.67613L50.64375 192.67613L45.95625 201.723L45.08125 201.723ZM48.8 199.39488Q48.8 198.473 49.253124 197.83238Q49.721874 197.19176 50.6125 197.19176Q51.425 197.19176 51.95625 197.76988Q52.4875 198.33238 52.4875 199.45738Q52.4875 200.55113 51.940624 201.14488Q51.409374 201.723 50.6125 201.723Q49.846874 201.723 49.315624 201.14488Q48.8 200.56676 48.8 199.39488ZM50.64375 197.9105Q50.2375 197.9105 49.971874 198.25426Q49.721874 198.598 49.721874 199.50426Q49.721874 200.31676 49.9875 200.6605Q50.253124 201.00426 50.64375 201.00426Q51.034374 201.00426 51.3 200.6605Q51.565624 200.31676 51.565624 199.4105Q51.565624 198.58238 51.3 198.25426Q51.034374 197.9105 50.64375 197.9105Z" fill-rule="nonzero"/><path stroke="#757575" stroke-width="1.0" stroke-linecap="butt" d="M18.55 188.9105L145.23334 188.9105L159.44588 188.9105" fill-rule="nonzero"/><path fill="#9e9e9e" d="M161.44588 188.9105C161.44588 187.80592 160.55045 186.9105 159.44588 186.9105C158.34131 186.9105 157.44588 187.80592 157.44588 188.9105C157.44588 190.01508 158.34131 190.9105 159.44588 190.9105C160.55045 190.9105 161.44588 190.01508 161.44588 188.9105" fill-rule="nonzero"/><path fill="#1a1a1a" d="M533.34064 213.95616L533.34064 205.36241L535.0594 205.36241L537.09064 211.44054Q537.3719 212.29991 537.4969 212.72179Q537.6375 212.25304 537.95 211.34679L540.0125 205.36241L541.54376 205.36241L541.54376 213.95616L540.45 213.95616L540.45 206.76866L537.95 213.95616L536.91876 213.95616L534.4344 206.64366L534.4344 213.95616L533.34064 213.95616ZM546.3094 213.19054Q545.71564 213.69054 545.16876 213.89366Q544.6375 214.09679 544.0125 214.09679Q542.98126 214.09679 542.4344 213.59679Q541.8875 213.09679 541.8875 212.31554Q541.8875 211.86241 542.09064 211.48741Q542.29376 211.09679 542.6375 210.87804Q542.98126 210.64366 543.40314 210.53429Q543.7 210.44054 544.34064 210.36241Q545.60626 210.22179 546.21564 210.00304Q546.21564 209.78429 546.21564 209.73741Q546.21564 209.08116 545.91876 208.81554Q545.5125 208.47179 544.71564 208.47179Q543.98126 208.47179 543.6219 208.73741Q543.2625 208.98741 543.09064 209.64366L542.0594 209.50304Q542.2 208.84679 542.52814 208.44054Q542.85626 208.03429 543.46564 207.81554Q544.075 207.59679 544.8719 207.59679Q545.66876 207.59679 546.16876 207.78429Q546.66876 207.97179 546.90314 208.25304Q547.1375 208.53429 547.23126 208.97179Q547.27814 209.23741 547.27814 209.94054L547.27814 211.34679Q547.27814 212.81554 547.34064 213.20616Q547.41876 213.59679 547.6219 213.95616L546.5125 213.95616Q546.35626 213.62804 546.3094 213.19054ZM546.21564 210.83116Q545.6375 211.06554 544.4969 211.23741Q543.84064 211.33116 543.575 211.45616Q543.3094 211.56554 543.15314 211.78429Q543.0125 212.00304 543.0125 212.28429Q543.0125 212.70616 543.325 212.98741Q543.65314 213.26866 544.2625 213.26866Q544.8719 213.26866 545.34064 213.00304Q545.825 212.73741 546.04376 212.26866Q546.21564 211.90929 546.21564 211.22179L546.21564 210.83116ZM543.10626 206.51866L543.10626 205.31554L544.2 205.31554L544.2 206.51866L543.10626 206.51866ZM545.29376 206.51866L545.29376 205.31554L546.3875 205.31554L546.3875 206.51866L545.29376 206.51866ZM549.2469 213.95616L549.2469 207.73741L550.1844 207.73741L550.1844 208.61241Q550.8719 207.59679 552.16876 207.59679Q552.73126 207.59679 553.2 207.79991Q553.6844 208.00304 553.91876 208.33116Q554.15314 208.65929 554.2469 209.09679Q554.29376 209.39366 554.29376 210.12804L554.29376 213.95616L553.2469 213.95616L553.2469 210.17491Q553.2469 209.51866 553.1219 209.20616Q552.9969 208.89366 552.6844 208.70616Q552.3719 208.50304 551.95 208.50304Q551.27814 208.50304 550.77814 208.94054Q550.29376 209.36241 550.29376 210.54991L550.29376 213.95616L549.2469 213.95616ZM556.2469 213.95616L556.2469 207.73741L557.1844 207.73741L557.1844 208.61241Q557.8719 207.59679 559.16876 207.59679Q559.73126 207.59679 560.2 207.79991Q560.6844 208.00304 560.91876 208.33116Q561.15314 208.65929 561.2469 209.09679Q561.29376 209.39366 561.29376 210.12804L561.29376 213.95616L560.2469 213.95616L560.2469 210.17491Q560.2469 209.51866 560.1219 209.20616Q559.9969 208.89366 559.6844 208.70616Q559.3719 208.50304 558.95 208.50304Q558.27814 208.50304 557.77814 208.94054Q557.29376 209.36241 557.29376 210.54991L557.29376 213.95616L556.2469 213.95616ZM563.21564 213.95616L563.21564 205.36241L564.27814 205.36241L564.27814 213.95616L563.21564 213.95616ZM566.2469 206.58116L566.2469 205.36241L567.3094 205.36241L567.3094 206.58116L566.2469 206.58116ZM566.2469 213.95616L566.2469 207.73741L567.3094 207.73741L567.3094 213.95616L566.2469 213.95616ZM573.3094 211.67491L574.34064 211.81554Q574.16876 212.87804 573.46564 213.48741Q572.7625 214.09679 571.7469 214.09679Q570.46564 214.09679 569.6844 213.26866Q568.91876 212.42491 568.91876 210.86241Q568.91876 209.86241 569.2469 209.11241Q569.59064 208.34679 570.2625 207.97179Q570.95 207.59679 571.7625 207.59679Q572.7625 207.59679 573.40314 208.11241Q574.0594 208.61241 574.2469 209.56554L573.21564 209.72179Q573.075 209.09679 572.7 208.78429Q572.325 208.45616 571.79376 208.45616Q570.9969 208.45616 570.4969 209.03429Q569.9969 209.59679 569.9969 210.83116Q569.9969 212.09679 570.48126 212.65929Q570.96564 213.22179 571.73126 213.22179Q572.35626 213.22179 572.7625 212.84679Q573.1844 212.47179 573.3094 211.67491ZM575.2469 213.95616L575.2469 205.36241L576.29376 205.36241L576.29376 208.44054Q577.02814 207.59679 578.15314 207.59679Q578.85626 207.59679 579.35626 207.87804Q579.8719 208.14366 580.09064 208.62804Q580.3094 209.09679 580.3094 210.01866L580.3094 213.95616L579.2625 213.95616L579.2625 210.01866Q579.2625 209.22179 578.91876 208.86241Q578.575 208.50304 577.95 208.50304Q577.48126 208.50304 577.0594 208.75304Q576.65314 208.98741 576.46564 209.40929Q576.29376 209.81554 576.29376 210.54991L576.29376 213.95616L575.2469 213.95616Z" fill-rule="nonzero"/><path fill="#9e9e9e" d="M546.95 228.70616L548.0594 228.61241Q548.1844 229.42491 548.6219 229.83116Q549.075 230.23741 549.71564 230.23741Q550.46564 230.23741 550.9969 229.65929Q551.52814 229.08116 551.52814 228.14366Q551.52814 227.23741 551.0125 226.72179Q550.5125 226.19054 549.6844 226.19054Q549.1844 226.19054 548.7625 226.42491Q548.35626 226.65929 548.1219 227.01866L547.1375 226.89366L547.96564 222.48741L552.2469 222.48741L552.2469 223.48741L548.8094 223.48741L548.35626 225.79991Q549.1219 225.25304 549.96564 225.25304Q551.09064 225.25304 551.85626 226.03429Q552.6375 226.81554 552.6375 228.04991Q552.6375 229.20616 551.96564 230.06554Q551.1375 231.09679 549.71564 231.09679Q548.54376 231.09679 547.79376 230.44054Q547.0594 229.78429 546.95 228.70616ZM553.95 228.69054L555.0125 228.54991Q555.1844 229.44054 555.6219 229.84679Q556.0594 230.23741 556.6844 230.23741Q557.4344 230.23741 557.95 229.72179Q558.46564 229.20616 558.46564 228.44054Q558.46564 227.72179 557.98126 227.25304Q557.5125 226.76866 556.77814 226.76866Q556.48126 226.76866 556.02814 226.89366L556.15314 225.95616Q556.2625 225.97179 556.325 225.97179Q556.9969 225.97179 557.52814 225.62804Q558.075 225.26866 558.075 224.53429Q558.075 223.95616 557.6844 223.58116Q557.29376 223.19054 556.66876 223.19054Q556.0594 223.19054 555.6375 223.58116Q555.23126 223.97179 555.1219 224.73741L554.0594 224.54991Q554.2469 223.50304 554.9344 222.92491Q555.6219 222.33116 556.6375 222.33116Q557.34064 222.33116 557.9344 222.64366Q558.52814 222.94054 558.84064 223.45616Q559.15314 223.97179 559.15314 224.56554Q559.15314 225.11241 558.85626 225.58116Q558.5594 226.03429 557.98126 226.29991Q558.73126 226.47179 559.15314 227.03429Q559.575 227.58116 559.575 228.42491Q559.575 229.54991 558.7469 230.33116Q557.9344 231.11241 556.6844 231.11241Q555.5594 231.11241 554.8094 230.44054Q554.0594 229.75304 553.95 228.69054ZM561.54376 230.95616L561.54376 229.75304L562.7469 229.75304L562.7469 230.95616L561.54376 230.95616ZM563.95 228.69054L565.0125 228.54991Q565.1844 229.44054 565.6219 229.84679Q566.0594 230.23741 566.6844 230.23741Q567.4344 230.23741 567.95 229.72179Q568.46564 229.20616 568.46564 228.44054Q568.46564 227.72179 567.98126 227.25304Q567.5125 226.76866 566.77814 226.76866Q566.48126 226.76866 566.02814 226.89366L566.15314 225.95616Q566.2625 225.97179 566.325 225.97179Q566.9969 225.97179 567.52814 225.62804Q568.075 225.26866 568.075 224.53429Q568.075 223.95616 567.6844 223.58116Q567.29376 223.19054 566.66876 223.19054Q566.0594 223.19054 565.6375 223.58116Q565.23126 223.97179 565.1219 224.73741L564.0594 224.54991Q564.2469 223.50304 564.9344 222.92491Q565.6219 222.33116 566.6375 222.33116Q567.34064 222.33116 567.9344 222.64366Q568.52814 222.94054 568.84064 223.45616Q569.15314 223.97179 569.15314 224.56554Q569.15314 225.11241 568.85626 225.58116Q568.5594 226.03429 567.98126 226.29991Q568.73126 226.47179 569.15314 227.03429Q569.575 227.58116 569.575 228.42491Q569.575 229.54991 568.7469 230.33116Q567.9344 231.11241 566.6844 231.11241Q565.5594 231.11241 564.8094 230.44054Q564.0594 229.75304 563.95 228.69054ZM571.15314 224.42491Q571.15314 223.50304 571.60626 222.86241Q572.075 222.22179 572.95 222.22179Q573.7625 222.22179 574.29376 222.79991Q574.825 223.37804 574.825 224.48741Q574.825 225.58116 574.27814 226.17491Q573.7469 226.75304 572.96564 226.75304Q572.1844 226.75304 571.66876 226.17491Q571.15314 225.59679 571.15314 224.42491ZM572.98126 222.94054Q572.59064 222.94054 572.325 223.28429Q572.075 223.62804 572.075 224.53429Q572.075 225.36241 572.325 225.70616Q572.59064 226.03429 572.98126 226.03429Q573.3875 226.03429 573.6375 225.69054Q573.90314 225.34679 573.90314 224.45616Q573.90314 223.61241 573.6375 223.28429Q573.3719 222.94054 572.98126 222.94054ZM572.98126 231.26866L577.6844 222.22179L578.54376 222.22179L573.85626 231.26866L572.98126 231.26866ZM576.7 228.94054Q576.7 228.01866 577.15314 227.37804Q577.6219 226.73741 578.5125 226.73741Q579.325 226.73741 579.85626 227.31554Q580.3875 227.87804 580.3875 229.00304Q580.3875 230.09679 579.84064 230.69054Q579.3094 231.26866 578.5125 231.26866Q577.7469 231.26866 577.21564 230.69054Q576.7 230.11241 576.7 228.94054ZM578.54376 227.45616Q578.1375 227.45616 577.8719 227.79991Q577.6219 228.14366 577.6219 229.04991Q577.6219 229.86241 577.8875 230.20616Q578.15314 230.54991 578.54376 230.54991Q578.9344 230.54991 579.2 230.20616Q579.46564 229.86241 579.46564 228.95616Q579.46564 228.12804 579.2 227.79991Q578.9344 227.45616 578.54376 227.45616Z" fill-rule="nonzero"/><path stroke="#757575" stroke-width="1.0" stroke-linecap="butt" d="M581.45 218.45616L454.76666 218.45616L440.5541 218.45616" fill-rule="nonzero"/><path fill="#9e9e9e" d="M442.5541 218.45616C442.5541 217.3516 441.6587 216.45616 440.5541 216.45616C439.44955 216.45616 438.5541 217.3516 438.5541 218.45616C438.5541 219.56073 439.44955 220.45616 440.5541 220.45616C441.6587 220.45616 442.5541 219.56073 442.5541 218.45616" fill-rule="nonzero"/><path fill="#757575" d="M26.8 32.940624L26.8 31.253124L32.8625 31.2375L32.8625 36.55Q31.45625 37.675 29.971874 38.2375Q28.4875 38.8 26.925 38.8Q24.815624 38.8 23.096874 37.89375Q21.378124 36.9875 20.4875 35.284374Q19.6125 33.565624 19.6125 31.45625Q19.6125 29.3625 20.4875 27.565624Q21.3625 25.753124 23.003124 24.878124Q24.64375 23.9875 26.784374 23.9875Q28.33125 23.9875 29.58125 24.4875Q30.846874 24.9875 31.55 25.89375Q32.26875 26.784374 32.64375 28.2375L30.940624 28.70625Q30.6125 27.6125 30.128124 26.9875Q29.659374 26.3625 28.76875 25.9875Q27.878124 25.6125 26.8 25.6125Q25.4875 25.6125 24.534374 26.003124Q23.596874 26.39375 23.01875 27.05Q22.440624 27.690624 22.1125 28.45625Q21.565624 29.784374 21.565624 31.346874Q21.565624 33.253124 22.221874 34.55Q22.89375 35.83125 24.14375 36.45625Q25.409374 37.08125 26.815624 37.08125Q28.05 37.08125 29.221874 36.6125Q30.39375 36.14375 31.003124 35.596874L31.003124 32.940624L26.8 32.940624ZM42.971874 35.20625L44.784374 35.440624Q44.3625 37.01875 43.190624 37.909374Q42.034374 38.784374 40.221874 38.784374Q37.95625 38.784374 36.6125 37.39375Q35.284374 35.9875 35.284374 33.45625Q35.284374 30.83125 36.628124 29.39375Q37.971874 27.940624 40.128124 27.940624Q42.20625 27.940624 43.51875 29.3625Q44.846874 30.76875 44.846874 33.346874Q44.846874 33.503124 44.83125 33.815624L37.096874 33.815624Q37.190624 35.51875 38.065624 36.425Q38.940624 37.33125 40.2375 37.33125Q41.20625 37.33125 41.878124 36.83125Q42.565624 36.315624 42.971874 35.20625ZM37.190624 32.3625L42.9875 32.3625Q42.878124 31.065624 42.33125 30.409374Q41.4875 29.39375 40.14375 29.39375Q38.940624 29.39375 38.1125 30.20625Q37.284374 31.003124 37.190624 32.3625ZM46.159374 35.45625L47.909374 35.175Q48.05 36.221874 48.721874 36.784374Q49.39375 37.33125 50.596874 37.33125Q51.8 37.33125 52.378124 36.846874Q52.971874 36.346874 52.971874 35.690624Q52.971874 35.096874 52.45625 34.753124Q52.096874 34.51875 50.659374 34.159374Q48.721874 33.659374 47.971874 33.315624Q47.2375 32.95625 46.846874 32.33125Q46.45625 31.690624 46.45625 30.925Q46.45625 30.2375 46.76875 29.64375Q47.096874 29.05 47.64375 28.659374Q48.05 28.3625 48.753124 28.159374Q49.471874 27.940624 50.284374 27.940624Q51.503124 27.940624 52.425 28.3Q53.346874 28.64375 53.784374 29.253124Q54.221874 29.846874 54.39375 30.846874L52.675 31.08125Q52.55 30.284374 51.9875 29.846874Q51.425 29.39375 50.409374 29.39375Q49.190624 29.39375 48.675 29.8Q48.159374 30.190624 48.159374 30.721874Q48.159374 31.065624 48.378124 31.346874Q48.58125 31.628124 49.05 31.815624Q49.315624 31.909374 50.596874 32.253124Q52.471874 32.753124 53.20625 33.08125Q53.940624 33.39375 54.3625 34.003124Q54.784374 34.596874 54.784374 35.503124Q54.784374 36.378124 54.26875 37.159374Q53.753124 37.940624 52.784374 38.3625Q51.815624 38.784374 50.596874 38.784374Q48.58125 38.784374 47.51875 37.940624Q46.45625 37.096874 46.159374 35.45625ZM63.64375 34.753124L65.3625 34.971874Q65.08125 36.76875 63.909374 37.784374Q62.753124 38.784374 61.05 38.784374Q58.925 38.784374 57.628124 37.39375Q56.33125 36.003124 56.33125 33.409374Q56.33125 31.721874 56.878124 30.471874Q57.440624 29.20625 58.58125 28.58125Q59.721874 27.940624 61.065624 27.940624Q62.753124 27.940624 63.815624 28.8Q64.89375 29.659374 65.20625 31.221874L63.4875 31.4875Q63.253124 30.440624 62.628124 29.925Q62.003124 29.39375 61.128124 29.39375Q59.8 29.39375 58.971874 30.346874Q58.14375 31.3 58.14375 33.346874Q58.14375 35.440624 58.940624 36.39375Q59.7375 37.33125 61.034374 37.33125Q62.065624 37.33125 62.753124 36.70625Q63.45625 36.065624 63.64375 34.753124ZM66.8625 38.55L66.8625 24.2375L68.62813 24.2375L68.62813 29.3625Q69.8625 27.940624 71.7375 27.940624Q72.87813 27.940624 73.72188 28.39375Q74.58125 28.846874 74.94063 29.659374Q75.31563 30.45625 75.31563 31.971874L75.31563 38.55L73.56563 38.55L73.56563 31.971874Q73.56563 30.659374 72.9875 30.065624Q72.40938 29.45625 71.37813 29.45625Q70.59688 29.45625 69.89375 29.8625Q69.20625 30.26875 68.90938 30.971874Q68.62813 31.659374 68.62813 32.878124L68.62813 38.55L66.8625 38.55ZM76.83125 38.55L76.83125 24.2375L78.58125 24.2375L78.58125 38.55L76.83125 38.55ZM87.97188 35.20625L89.78438 35.440624Q89.3625 37.01875 88.19063 37.909374Q87.03438 38.784374 85.22188 38.784374Q82.95625 38.784374 81.6125 37.39375Q80.28438 35.9875 80.28438 33.45625Q80.28438 30.83125 81.62813 29.39375Q82.97188 27.940624 85.12813 27.940624Q87.20625 27.940624 88.51875 29.3625Q89.84688 30.76875 89.84688 33.346874Q89.84688 33.503124 89.83125 33.815624L82.09688 33.815624Q82.19063 35.51875 83.06563 36.425Q83.94063 37.33125 85.2375 37.33125Q86.20625 37.33125 86.87813 36.83125Q87.56563 36.315624 87.97188 35.20625ZM82.19063 32.3625L87.9875 32.3625Q87.87813 31.065624 87.33125 30.409374Q86.4875 29.39375 85.14375 29.39375Q83.94063 29.39375 83.1125 30.20625Q82.28438 31.003124 82.19063 32.3625ZM98.64375 34.753124L100.3625 34.971874Q100.08125 36.76875 98.90938 37.784374Q97.75313 38.784374 96.05 38.784374Q93.925 38.784374 92.62813 37.39375Q91.33125 36.003124 91.33125 33.409374Q91.33125 31.721874 91.87813 30.471874Q92.44063 29.20625 93.58125 28.58125Q94.72188 27.940624 96.06563 27.940624Q97.75313 27.940624 98.81563 28.8Q99.89375 29.659374 100.20625 31.221874L98.4875 31.4875Q98.25313 30.440624 97.62813 29.925Q97.00313 29.39375 96.12813 29.39375Q94.8 29.39375 93.97188 30.346874Q93.14375 31.3 93.14375 33.346874Q93.14375 35.440624 93.94063 36.39375Q94.7375 37.33125 96.03438 37.33125Q97.06563 37.33125 97.75313 36.70625Q98.45625 36.065624 98.64375 34.753124ZM101.8625 38.55L101.8625 24.2375L103.62813 24.2375L103.62813 29.3625Q104.8625 27.940624 106.7375 27.940624Q107.87813 27.940624 108.72188 28.39375Q109.58125 28.846874 109.94063 29.659374Q110.31563 30.45625 110.31563 31.971874L110.31563 38.55L108.56563 38.55L108.56563 31.971874Q108.56563 30.659374 107.9875 30.065624Q107.40938 29.45625 106.37813 29.45625Q105.59688 29.45625 104.89375 29.8625Q104.20625 30.26875 103.90938 30.971874Q103.62813 31.659374 103.62813 32.878124L103.62813 38.55L101.8625 38.55ZM115.70625 36.971874L115.95625 38.534374Q115.22188 38.690624 114.62813 38.690624Q113.675 38.690624 113.14375 38.39375Q112.62813 38.08125 112.40938 37.596874Q112.19063 37.096874 112.19063 35.51875L112.19063 29.55L110.90938 29.55L110.90938 28.175L112.19063 28.175L112.19063 25.6125L113.94063 24.55L113.94063 28.175L115.70625 28.175L115.70625 29.55L113.94063 29.55L113.94063 35.6125Q113.94063 36.3625 114.03438 36.58125Q114.12813 36.784374 114.33125 36.925Q114.55 37.05 114.94063 37.05Q115.22188 37.05 115.70625 36.971874Z" fill-rule="nonzero"/></svg>