<?xml version="1.0" encoding="utf-8" standalone="no"?>
<!DOCTYPE svg PUBLIC "-//W3C//DTD SVG 1.1//EN"
  "http://www.w3.org/Graphics/SVG/1.1/DTD/svg11.dtd">
<svg xmlns:xlink="http://www.w3.org/1999/xlink" width="720pt" height="432pt" viewBox="0 0 720 432" xmlns="http://www.w3.org/2000/svg" version="1.1">
 <metadata>
  <rdf:RDF xmlns:dc="http://purl.org/dc/elements/1.1/" xmlns:cc="http://creativecommons.org/ns#" xmlns:rdf="http://www.w3.org/1999/02/22-rdf-syntax-ns#">
   <cc:Work>
    <dc:type rdf:resource="http://purl.org/dc/dcmitype/StillImage"/>
    <dc:date>2024-03-09T17:43:42.526635</dc:date>
    <dc:format>image/svg+xml</dc:format>
    <dc:creator>
     <cc:Agent>
      <dc:title>Matplotlib v3.7.0, https://matplotlib.org/</dc:title>
     </cc:Agent>
    </dc:creator>
   </cc:Work>
  </rdf:RDF>
 </metadata>
 <defs>
  <style type="text/css">*{stroke-linejoin: round; stroke-linecap: butt}</style>
 </defs>
 <g id="figure_1">
  <g id="patch_1">
   <path d="M 0 432 
L 720 432 
L 720 0 
L 0 0 
z
" style="fill: #ffffff"/>
  </g>
  <g id="axes_1">
   <g id="patch_2">
    <path d="M 90 384.48 
L 648 384.48 
L 648 51.84 
L 90 51.84 
z
" style="fill: #ffffff"/>
   </g>
   <g id="matplotlib.axis_1">
    <g id="xtick_1">
     <g id="text_1">
      <!-- Deutschland -->
      <g style="fill: #262626" transform="translate(152.426875 401.853594) scale(0.11 -0.11)">
       <defs>
        <path id="ArialMT-44" d="M 494 0 
L 494 4581 
L 2072 4581 
Q 2606 4581 2888 4516 
Q 3281 4425 3559 4188 
Q 3922 3881 4101 3404 
Q 4281 2928 4281 2316 
Q 4281 1794 4159 1391 
Q 4038 988 3847 723 
Q 3656 459 3429 307 
Q 3203 156 2883 78 
Q 2563 0 2147 0 
L 494 0 
z
M 1100 541 
L 2078 541 
Q 2531 541 2789 625 
Q 3047 709 3200 863 
Q 3416 1078 3536 1442 
Q 3656 1806 3656 2325 
Q 3656 3044 3420 3430 
Q 3184 3816 2847 3947 
Q 2603 4041 2063 4041 
L 1100 4041 
L 1100 541 
z
" transform="scale(0.015625)"/>
        <path id="ArialMT-65" d="M 2694 1069 
L 3275 997 
Q 3138 488 2766 206 
Q 2394 -75 1816 -75 
Q 1088 -75 661 373 
Q 234 822 234 1631 
Q 234 2469 665 2931 
Q 1097 3394 1784 3394 
Q 2450 3394 2872 2941 
Q 3294 2488 3294 1666 
Q 3294 1616 3291 1516 
L 816 1516 
Q 847 969 1125 678 
Q 1403 388 1819 388 
Q 2128 388 2347 550 
Q 2566 713 2694 1069 
z
M 847 1978 
L 2700 1978 
Q 2663 2397 2488 2606 
Q 2219 2931 1791 2931 
Q 1403 2931 1139 2672 
Q 875 2413 847 1978 
z
" transform="scale(0.015625)"/>
        <path id="ArialMT-75" d="M 2597 0 
L 2597 488 
Q 2209 -75 1544 -75 
Q 1250 -75 995 37 
Q 741 150 617 320 
Q 494 491 444 738 
Q 409 903 409 1263 
L 409 3319 
L 972 3319 
L 972 1478 
Q 972 1038 1006 884 
Q 1059 663 1231 536 
Q 1403 409 1656 409 
Q 1909 409 2131 539 
Q 2353 669 2445 892 
Q 2538 1116 2538 1541 
L 2538 3319 
L 3100 3319 
L 3100 0 
L 2597 0 
z
" transform="scale(0.015625)"/>
        <path id="ArialMT-74" d="M 1650 503 
L 1731 6 
Q 1494 -44 1306 -44 
Q 1000 -44 831 53 
Q 663 150 594 308 
Q 525 466 525 972 
L 525 2881 
L 113 2881 
L 113 3319 
L 525 3319 
L 525 4141 
L 1084 4478 
L 1084 3319 
L 1650 3319 
L 1650 2881 
L 1084 2881 
L 1084 941 
Q 1084 700 1114 631 
Q 1144 563 1211 522 
Q 1278 481 1403 481 
Q 1497 481 1650 503 
z
" transform="scale(0.015625)"/>
        <path id="ArialMT-73" d="M 197 991 
L 753 1078 
Q 800 744 1014 566 
Q 1228 388 1613 388 
Q 2000 388 2187 545 
Q 2375 703 2375 916 
Q 2375 1106 2209 1216 
Q 2094 1291 1634 1406 
Q 1016 1563 777 1677 
Q 538 1791 414 1992 
Q 291 2194 291 2438 
Q 291 2659 392 2848 
Q 494 3038 669 3163 
Q 800 3259 1026 3326 
Q 1253 3394 1513 3394 
Q 1903 3394 2198 3281 
Q 2494 3169 2634 2976 
Q 2775 2784 2828 2463 
L 2278 2388 
Q 2241 2644 2061 2787 
Q 1881 2931 1553 2931 
Q 1166 2931 1000 2803 
Q 834 2675 834 2503 
Q 834 2394 903 2306 
Q 972 2216 1119 2156 
Q 1203 2125 1616 2013 
Q 2213 1853 2448 1751 
Q 2684 1650 2818 1456 
Q 2953 1263 2953 975 
Q 2953 694 2789 445 
Q 2625 197 2315 61 
Q 2006 -75 1616 -75 
Q 969 -75 630 194 
Q 291 463 197 991 
z
" transform="scale(0.015625)"/>
        <path id="ArialMT-63" d="M 2588 1216 
L 3141 1144 
Q 3050 572 2676 248 
Q 2303 -75 1759 -75 
Q 1078 -75 664 370 
Q 250 816 250 1647 
Q 250 2184 428 2587 
Q 606 2991 970 3192 
Q 1334 3394 1763 3394 
Q 2303 3394 2647 3120 
Q 2991 2847 3088 2344 
L 2541 2259 
Q 2463 2594 2264 2762 
Q 2066 2931 1784 2931 
Q 1359 2931 1093 2626 
Q 828 2322 828 1663 
Q 828 994 1084 691 
Q 1341 388 1753 388 
Q 2084 388 2306 591 
Q 2528 794 2588 1216 
z
" transform="scale(0.015625)"/>
        <path id="ArialMT-68" d="M 422 0 
L 422 4581 
L 984 4581 
L 984 2938 
Q 1378 3394 1978 3394 
Q 2347 3394 2619 3248 
Q 2891 3103 3008 2847 
Q 3125 2591 3125 2103 
L 3125 0 
L 2563 0 
L 2563 2103 
Q 2563 2525 2380 2717 
Q 2197 2909 1863 2909 
Q 1613 2909 1392 2779 
Q 1172 2650 1078 2428 
Q 984 2206 984 1816 
L 984 0 
L 422 0 
z
" transform="scale(0.015625)"/>
        <path id="ArialMT-6c" d="M 409 0 
L 409 4581 
L 972 4581 
L 972 0 
L 409 0 
z
" transform="scale(0.015625)"/>
        <path id="ArialMT-61" d="M 2588 409 
Q 2275 144 1986 34 
Q 1697 -75 1366 -75 
Q 819 -75 525 192 
Q 231 459 231 875 
Q 231 1119 342 1320 
Q 453 1522 633 1644 
Q 813 1766 1038 1828 
Q 1203 1872 1538 1913 
Q 2219 1994 2541 2106 
Q 2544 2222 2544 2253 
Q 2544 2597 2384 2738 
Q 2169 2928 1744 2928 
Q 1347 2928 1158 2789 
Q 969 2650 878 2297 
L 328 2372 
Q 403 2725 575 2942 
Q 747 3159 1072 3276 
Q 1397 3394 1825 3394 
Q 2250 3394 2515 3294 
Q 2781 3194 2906 3042 
Q 3031 2891 3081 2659 
Q 3109 2516 3109 2141 
L 3109 1391 
Q 3109 606 3145 398 
Q 3181 191 3288 0 
L 2700 0 
Q 2613 175 2588 409 
z
M 2541 1666 
Q 2234 1541 1622 1453 
Q 1275 1403 1131 1340 
Q 988 1278 909 1158 
Q 831 1038 831 891 
Q 831 666 1001 516 
Q 1172 366 1500 366 
Q 1825 366 2078 508 
Q 2331 650 2450 897 
Q 2541 1088 2541 1459 
L 2541 1666 
z
" transform="scale(0.015625)"/>
        <path id="ArialMT-6e" d="M 422 0 
L 422 3319 
L 928 3319 
L 928 2847 
Q 1294 3394 1984 3394 
Q 2284 3394 2536 3286 
Q 2788 3178 2913 3003 
Q 3038 2828 3088 2588 
Q 3119 2431 3119 2041 
L 3119 0 
L 2556 0 
L 2556 2019 
Q 2556 2363 2490 2533 
Q 2425 2703 2258 2804 
Q 2091 2906 1866 2906 
Q 1506 2906 1245 2678 
Q 984 2450 984 1813 
L 984 0 
L 422 0 
z
" transform="scale(0.015625)"/>
        <path id="ArialMT-64" d="M 2575 0 
L 2575 419 
Q 2259 -75 1647 -75 
Q 1250 -75 917 144 
Q 584 363 401 755 
Q 219 1147 219 1656 
Q 219 2153 384 2558 
Q 550 2963 881 3178 
Q 1213 3394 1622 3394 
Q 1922 3394 2156 3267 
Q 2391 3141 2538 2938 
L 2538 4581 
L 3097 4581 
L 3097 0 
L 2575 0 
z
M 797 1656 
Q 797 1019 1065 703 
Q 1334 388 1700 388 
Q 2069 388 2326 689 
Q 2584 991 2584 1609 
Q 2584 2291 2321 2609 
Q 2059 2928 1675 2928 
Q 1300 2928 1048 2622 
Q 797 2316 797 1656 
z
" transform="scale(0.015625)"/>
       </defs>
       <use xlink:href="#ArialMT-44"/>
       <use xlink:href="#ArialMT-65" x="72.216797"/>
       <use xlink:href="#ArialMT-75" x="127.832031"/>
       <use xlink:href="#ArialMT-74" x="183.447266"/>
       <use xlink:href="#ArialMT-73" x="211.230469"/>
       <use xlink:href="#ArialMT-63" x="261.230469"/>
       <use xlink:href="#ArialMT-68" x="311.230469"/>
       <use xlink:href="#ArialMT-6c" x="366.845703"/>
       <use xlink:href="#ArialMT-61" x="389.0625"/>
       <use xlink:href="#ArialMT-6e" x="444.677734"/>
       <use xlink:href="#ArialMT-64" x="500.292969"/>
      </g>
     </g>
    </g>
    <g id="xtick_2">
     <g id="text_2">
      <!-- China -->
      <g style="fill: #262626" transform="translate(354.630391 401.853594) scale(0.11 -0.11)">
       <defs>
        <path id="ArialMT-43" d="M 3763 1606 
L 4369 1453 
Q 4178 706 3683 314 
Q 3188 -78 2472 -78 
Q 1731 -78 1267 223 
Q 803 525 561 1097 
Q 319 1669 319 2325 
Q 319 3041 592 3573 
Q 866 4106 1370 4382 
Q 1875 4659 2481 4659 
Q 3169 4659 3637 4309 
Q 4106 3959 4291 3325 
L 3694 3184 
Q 3534 3684 3231 3912 
Q 2928 4141 2469 4141 
Q 1941 4141 1586 3887 
Q 1231 3634 1087 3207 
Q 944 2781 944 2328 
Q 944 1744 1114 1308 
Q 1284 872 1643 656 
Q 2003 441 2422 441 
Q 2931 441 3284 734 
Q 3638 1028 3763 1606 
z
" transform="scale(0.015625)"/>
        <path id="ArialMT-69" d="M 425 3934 
L 425 4581 
L 988 4581 
L 988 3934 
L 425 3934 
z
M 425 0 
L 425 3319 
L 988 3319 
L 988 0 
L 425 0 
z
" transform="scale(0.015625)"/>
       </defs>
       <use xlink:href="#ArialMT-43"/>
       <use xlink:href="#ArialMT-68" x="72.216797"/>
       <use xlink:href="#ArialMT-69" x="127.832031"/>
       <use xlink:href="#ArialMT-6e" x="150.048828"/>
       <use xlink:href="#ArialMT-61" x="205.664062"/>
      </g>
     </g>
    </g>
    <g id="xtick_3">
     <g id="text_3">
      <!-- Schweiz -->
      <g style="fill: #262626" transform="translate(534.520234 401.853594) scale(0.11 -0.11)">
       <defs>
        <path id="ArialMT-53" d="M 288 1472 
L 859 1522 
Q 900 1178 1048 958 
Q 1197 738 1509 602 
Q 1822 466 2213 466 
Q 2559 466 2825 569 
Q 3091 672 3220 851 
Q 3350 1031 3350 1244 
Q 3350 1459 3225 1620 
Q 3100 1781 2813 1891 
Q 2628 1963 1997 2114 
Q 1366 2266 1113 2400 
Q 784 2572 623 2826 
Q 463 3081 463 3397 
Q 463 3744 659 4045 
Q 856 4347 1234 4503 
Q 1613 4659 2075 4659 
Q 2584 4659 2973 4495 
Q 3363 4331 3572 4012 
Q 3781 3694 3797 3291 
L 3216 3247 
Q 3169 3681 2898 3903 
Q 2628 4125 2100 4125 
Q 1550 4125 1298 3923 
Q 1047 3722 1047 3438 
Q 1047 3191 1225 3031 
Q 1400 2872 2139 2705 
Q 2878 2538 3153 2413 
Q 3553 2228 3743 1945 
Q 3934 1663 3934 1294 
Q 3934 928 3725 604 
Q 3516 281 3123 101 
Q 2731 -78 2241 -78 
Q 1619 -78 1198 103 
Q 778 284 539 648 
Q 300 1013 288 1472 
z
" transform="scale(0.015625)"/>
        <path id="ArialMT-77" d="M 1034 0 
L 19 3319 
L 600 3319 
L 1128 1403 
L 1325 691 
Q 1338 744 1497 1375 
L 2025 3319 
L 2603 3319 
L 3100 1394 
L 3266 759 
L 3456 1400 
L 4025 3319 
L 4572 3319 
L 3534 0 
L 2950 0 
L 2422 1988 
L 2294 2553 
L 1622 0 
L 1034 0 
z
" transform="scale(0.015625)"/>
        <path id="ArialMT-7a" d="M 125 0 
L 125 456 
L 2238 2881 
Q 1878 2863 1603 2863 
L 250 2863 
L 250 3319 
L 2963 3319 
L 2963 2947 
L 1166 841 
L 819 456 
Q 1197 484 1528 484 
L 3063 484 
L 3063 0 
L 125 0 
z
" transform="scale(0.015625)"/>
       </defs>
       <use xlink:href="#ArialMT-53"/>
       <use xlink:href="#ArialMT-63" x="66.699219"/>
       <use xlink:href="#ArialMT-68" x="116.699219"/>
       <use xlink:href="#ArialMT-77" x="172.314453"/>
       <use xlink:href="#ArialMT-65" x="244.53125"/>
       <use xlink:href="#ArialMT-69" x="300.146484"/>
       <use xlink:href="#ArialMT-7a" x="322.363281"/>
      </g>
     </g>
    </g>
    <g id="text_4">
     <!-- Wohnort -->
     <g style="fill: #262626" transform="translate(346.430625 416.629219) scale(0.12 -0.12)">
      <defs>
       <path id="ArialMT-57" d="M 1294 0 
L 78 4581 
L 700 4581 
L 1397 1578 
Q 1509 1106 1591 641 
Q 1766 1375 1797 1488 
L 2669 4581 
L 3400 4581 
L 4056 2263 
Q 4303 1400 4413 641 
Q 4500 1075 4641 1638 
L 5359 4581 
L 5969 4581 
L 4713 0 
L 4128 0 
L 3163 3491 
Q 3041 3928 3019 4028 
Q 2947 3713 2884 3491 
L 1913 0 
L 1294 0 
z
" transform="scale(0.015625)"/>
       <path id="ArialMT-6f" d="M 213 1659 
Q 213 2581 725 3025 
Q 1153 3394 1769 3394 
Q 2453 3394 2887 2945 
Q 3322 2497 3322 1706 
Q 3322 1066 3130 698 
Q 2938 331 2570 128 
Q 2203 -75 1769 -75 
Q 1072 -75 642 372 
Q 213 819 213 1659 
z
M 791 1659 
Q 791 1022 1069 705 
Q 1347 388 1769 388 
Q 2188 388 2466 706 
Q 2744 1025 2744 1678 
Q 2744 2294 2464 2611 
Q 2184 2928 1769 2928 
Q 1347 2928 1069 2612 
Q 791 2297 791 1659 
z
" transform="scale(0.015625)"/>
       <path id="ArialMT-72" d="M 416 0 
L 416 3319 
L 922 3319 
L 922 2816 
Q 1116 3169 1280 3281 
Q 1444 3394 1641 3394 
Q 1925 3394 2219 3213 
L 2025 2691 
Q 1819 2813 1613 2813 
Q 1428 2813 1281 2702 
Q 1134 2591 1072 2394 
Q 978 2094 978 1738 
L 978 0 
L 416 0 
z
" transform="scale(0.015625)"/>
      </defs>
      <use xlink:href="#ArialMT-57"/>
      <use xlink:href="#ArialMT-6f" x="92.634766"/>
      <use xlink:href="#ArialMT-68" x="148.25"/>
      <use xlink:href="#ArialMT-6e" x="203.865234"/>
      <use xlink:href="#ArialMT-6f" x="259.480469"/>
      <use xlink:href="#ArialMT-72" x="315.095703"/>
      <use xlink:href="#ArialMT-74" x="348.396484"/>
     </g>
    </g>
   </g>
   <g id="matplotlib.axis_2">
    <g id="ytick_1">
     <g id="line2d_1">
      <path d="M 90 369.36 
L 648 369.36 
" clip-path="url(#p9968526fd5)" style="fill: none; stroke: #cccccc; stroke-linecap: round"/>
     </g>
     <g id="text_5">
      <!-- −4 -->
      <g style="fill: #262626" transform="translate(67.958281 373.296797) scale(0.11 -0.11)">
       <defs>
        <path id="ArialMT-2212" d="M 3381 1997 
L 356 1997 
L 356 2522 
L 3381 2522 
L 3381 1997 
z
" transform="scale(0.015625)"/>
        <path id="ArialMT-34" d="M 2069 0 
L 2069 1097 
L 81 1097 
L 81 1613 
L 2172 4581 
L 2631 4581 
L 2631 1613 
L 3250 1613 
L 3250 1097 
L 2631 1097 
L 2631 0 
L 2069 0 
z
M 2069 1613 
L 2069 3678 
L 634 1613 
L 2069 1613 
z
" transform="scale(0.015625)"/>
       </defs>
       <use xlink:href="#ArialMT-2212"/>
       <use xlink:href="#ArialMT-34" x="58.398438"/>
      </g>
     </g>
    </g>
    <g id="ytick_2">
     <g id="line2d_2">
      <path d="M 90 314.378182 
L 648 314.378182 
" clip-path="url(#p9968526fd5)" style="fill: none; stroke: #cccccc; stroke-linecap: round"/>
     </g>
     <g id="text_6">
      <!-- −2 -->
      <g style="fill: #262626" transform="translate(67.958281 318.314979) scale(0.11 -0.11)">
       <defs>
        <path id="ArialMT-32" d="M 3222 541 
L 3222 0 
L 194 0 
Q 188 203 259 391 
Q 375 700 629 1000 
Q 884 1300 1366 1694 
Q 2113 2306 2375 2664 
Q 2638 3022 2638 3341 
Q 2638 3675 2398 3904 
Q 2159 4134 1775 4134 
Q 1369 4134 1125 3890 
Q 881 3647 878 3216 
L 300 3275 
Q 359 3922 746 4261 
Q 1134 4600 1788 4600 
Q 2447 4600 2831 4234 
Q 3216 3869 3216 3328 
Q 3216 3053 3103 2787 
Q 2991 2522 2730 2228 
Q 2469 1934 1863 1422 
Q 1356 997 1212 845 
Q 1069 694 975 541 
L 3222 541 
z
" transform="scale(0.015625)"/>
       </defs>
       <use xlink:href="#ArialMT-2212"/>
       <use xlink:href="#ArialMT-32" x="58.398438"/>
      </g>
     </g>
    </g>
    <g id="ytick_3">
     <g id="line2d_3">
      <path d="M 90 259.396364 
L 648 259.396364 
" clip-path="url(#p9968526fd5)" style="fill: none; stroke: #cccccc; stroke-linecap: round"/>
     </g>
     <g id="text_7">
      <!-- 0 -->
      <g style="fill: #262626" transform="translate(74.382969 263.333161) scale(0.11 -0.11)">
       <defs>
        <path id="ArialMT-30" d="M 266 2259 
Q 266 3072 433 3567 
Q 600 4063 929 4331 
Q 1259 4600 1759 4600 
Q 2128 4600 2406 4451 
Q 2684 4303 2865 4023 
Q 3047 3744 3150 3342 
Q 3253 2941 3253 2259 
Q 3253 1453 3087 958 
Q 2922 463 2592 192 
Q 2263 -78 1759 -78 
Q 1097 -78 719 397 
Q 266 969 266 2259 
z
M 844 2259 
Q 844 1131 1108 757 
Q 1372 384 1759 384 
Q 2147 384 2411 759 
Q 2675 1134 2675 2259 
Q 2675 3391 2411 3762 
Q 2147 4134 1753 4134 
Q 1366 4134 1134 3806 
Q 844 3388 844 2259 
z
" transform="scale(0.015625)"/>
       </defs>
       <use xlink:href="#ArialMT-30"/>
      </g>
     </g>
    </g>
    <g id="ytick_4">
     <g id="line2d_4">
      <path d="M 90 204.414545 
L 648 204.414545 
" clip-path="url(#p9968526fd5)" style="fill: none; stroke: #cccccc; stroke-linecap: round"/>
     </g>
     <g id="text_8">
      <!-- 2 -->
      <g style="fill: #262626" transform="translate(74.382969 208.351342) scale(0.11 -0.11)">
       <use xlink:href="#ArialMT-32"/>
      </g>
     </g>
    </g>
    <g id="ytick_5">
     <g id="line2d_5">
      <path d="M 90 149.432727 
L 648 149.432727 
" clip-path="url(#p9968526fd5)" style="fill: none; stroke: #cccccc; stroke-linecap: round"/>
     </g>
     <g id="text_9">
      <!-- 4 -->
      <g style="fill: #262626" transform="translate(74.382969 153.369524) scale(0.11 -0.11)">
       <use xlink:href="#ArialMT-34"/>
      </g>
     </g>
    </g>
    <g id="ytick_6">
     <g id="line2d_6">
      <path d="M 90 94.450909 
L 648 94.450909 
" clip-path="url(#p9968526fd5)" style="fill: none; stroke: #cccccc; stroke-linecap: round"/>
     </g>
     <g id="text_10">
      <!-- 6 -->
      <g style="fill: #262626" transform="translate(74.382969 98.387706) scale(0.11 -0.11)">
       <defs>
        <path id="ArialMT-36" d="M 3184 3459 
L 2625 3416 
Q 2550 3747 2413 3897 
Q 2184 4138 1850 4138 
Q 1581 4138 1378 3988 
Q 1113 3794 959 3422 
Q 806 3050 800 2363 
Q 1003 2672 1297 2822 
Q 1591 2972 1913 2972 
Q 2475 2972 2870 2558 
Q 3266 2144 3266 1488 
Q 3266 1056 3080 686 
Q 2894 316 2569 119 
Q 2244 -78 1831 -78 
Q 1128 -78 684 439 
Q 241 956 241 2144 
Q 241 3472 731 4075 
Q 1159 4600 1884 4600 
Q 2425 4600 2770 4297 
Q 3116 3994 3184 3459 
z
M 888 1484 
Q 888 1194 1011 928 
Q 1134 663 1356 523 
Q 1578 384 1822 384 
Q 2178 384 2434 671 
Q 2691 959 2691 1453 
Q 2691 1928 2437 2201 
Q 2184 2475 1800 2475 
Q 1419 2475 1153 2201 
Q 888 1928 888 1484 
z
" transform="scale(0.015625)"/>
       </defs>
       <use xlink:href="#ArialMT-36"/>
      </g>
     </g>
    </g>
    <g id="text_11">
     <!-- Kaufwahrscheinlichkeit -->
     <g style="fill: #262626" transform="translate(61.573281 279.188437) rotate(-90) scale(0.12 -0.12)">
      <defs>
       <path id="ArialMT-4b" d="M 469 0 
L 469 4581 
L 1075 4581 
L 1075 2309 
L 3350 4581 
L 4172 4581 
L 2250 2725 
L 4256 0 
L 3456 0 
L 1825 2319 
L 1075 1588 
L 1075 0 
L 469 0 
z
" transform="scale(0.015625)"/>
       <path id="ArialMT-66" d="M 556 0 
L 556 2881 
L 59 2881 
L 59 3319 
L 556 3319 
L 556 3672 
Q 556 4006 616 4169 
Q 697 4388 901 4523 
Q 1106 4659 1475 4659 
Q 1713 4659 2000 4603 
L 1916 4113 
Q 1741 4144 1584 4144 
Q 1328 4144 1222 4034 
Q 1116 3925 1116 3625 
L 1116 3319 
L 1763 3319 
L 1763 2881 
L 1116 2881 
L 1116 0 
L 556 0 
z
" transform="scale(0.015625)"/>
       <path id="ArialMT-6b" d="M 425 0 
L 425 4581 
L 988 4581 
L 988 1969 
L 2319 3319 
L 3047 3319 
L 1778 2088 
L 3175 0 
L 2481 0 
L 1384 1697 
L 988 1316 
L 988 0 
L 425 0 
z
" transform="scale(0.015625)"/>
      </defs>
      <use xlink:href="#ArialMT-4b"/>
      <use xlink:href="#ArialMT-61" x="66.699219"/>
      <use xlink:href="#ArialMT-75" x="122.314453"/>
      <use xlink:href="#ArialMT-66" x="177.929688"/>
      <use xlink:href="#ArialMT-77" x="205.712891"/>
      <use xlink:href="#ArialMT-61" x="277.929688"/>
      <use xlink:href="#ArialMT-68" x="333.544922"/>
      <use xlink:href="#ArialMT-72" x="389.160156"/>
      <use xlink:href="#ArialMT-73" x="422.460938"/>
      <use xlink:href="#ArialMT-63" x="472.460938"/>
      <use xlink:href="#ArialMT-68" x="522.460938"/>
      <use xlink:href="#ArialMT-65" x="578.076172"/>
      <use xlink:href="#ArialMT-69" x="633.691406"/>
      <use xlink:href="#ArialMT-6e" x="655.908203"/>
      <use xlink:href="#ArialMT-6c" x="711.523438"/>
      <use xlink:href="#ArialMT-69" x="733.740234"/>
      <use xlink:href="#ArialMT-63" x="755.957031"/>
      <use xlink:href="#ArialMT-68" x="805.957031"/>
      <use xlink:href="#ArialMT-6b" x="861.572266"/>
      <use xlink:href="#ArialMT-65" x="911.572266"/>
      <use xlink:href="#ArialMT-69" x="967.1875"/>
      <use xlink:href="#ArialMT-74" x="989.404297"/>
     </g>
    </g>
   </g>
   <g id="patch_3">
    <path d="M 118.551 238.778182 
L 182.349 238.778182 
L 182.349 176.923636 
L 118.551 176.923636 
L 118.551 238.778182 
z
" clip-path="url(#p9968526fd5)" style="fill: #96cac1; stroke: #6a6a6a; stroke-width: 2.5; stroke-linejoin: miter"/>
   </g>
   <g id="patch_4">
    <path d="M 183.651 314.378182 
L 247.449 314.378182 
L 247.449 259.396364 
L 183.651 259.396364 
L 183.651 314.378182 
z
" clip-path="url(#p9968526fd5)" style="fill: #f6f6bc; stroke: #6a6a6a; stroke-width: 2.5; stroke-linejoin: miter"/>
   </g>
   <g id="patch_5">
    <path d="M 304.551 252.523636 
L 368.349 252.523636 
L 368.349 204.414545 
L 304.551 204.414545 
L 304.551 252.523636 
z
" clip-path="url(#p9968526fd5)" style="fill: #96cac1; stroke: #6a6a6a; stroke-width: 2.5; stroke-linejoin: miter"/>
   </g>
   <g id="patch_6">
    <path d="M 369.651 314.378182 
L 433.449 314.378182 
L 433.449 259.396364 
L 369.651 259.396364 
L 369.651 314.378182 
z
" clip-path="url(#p9968526fd5)" style="fill: #f6f6bc; stroke: #6a6a6a; stroke-width: 2.5; stroke-linejoin: miter"/>
   </g>
   <g id="patch_7">
    <path d="M 490.551 142.56 
L 554.349 142.56 
L 554.349 128.814545 
L 490.551 128.814545 
L 490.551 142.56 
z
" clip-path="url(#p9968526fd5)" style="fill: #96cac1; stroke: #6a6a6a; stroke-width: 2.5; stroke-linejoin: miter"/>
   </g>
   <g id="patch_8">
    <path d="M 555.651 286.887273 
L 619.449 286.887273 
L 619.449 286.887273 
L 555.651 286.887273 
L 555.651 286.887273 
z
" clip-path="url(#p9968526fd5)" style="fill: #f6f6bc; stroke: #6a6a6a; stroke-width: 2.5; stroke-linejoin: miter"/>
   </g>
   <g id="patch_9">
    <path d="M 183 259.396364 
L 183 259.396364 
L 183 259.396364 
L 183 259.396364 
z
" clip-path="url(#p9968526fd5)" style="fill: #96cac1; stroke: #6a6a6a; stroke-width: 1.25; stroke-linejoin: miter"/>
   </g>
   <g id="patch_10">
    <path d="M 183 259.396364 
L 183 259.396364 
L 183 259.396364 
L 183 259.396364 
z
" clip-path="url(#p9968526fd5)" style="fill: #f6f6bc; stroke: #6a6a6a; stroke-width: 1.25; stroke-linejoin: miter"/>
   </g>
   <g id="line2d_7">
    <path d="M 150.45 238.778182 
L 150.45 259.396364 
" clip-path="url(#p9968526fd5)" style="fill: none; stroke: #6a6a6a; stroke-width: 2.5; stroke-linecap: round"/>
   </g>
   <g id="line2d_8">
    <path d="M 150.45 176.923636 
L 150.45 121.941818 
" clip-path="url(#p9968526fd5)" style="fill: none; stroke: #6a6a6a; stroke-width: 2.5; stroke-linecap: round"/>
   </g>
   <g id="line2d_9">
    <path d="M 134.5005 259.396364 
L 166.3995 259.396364 
" clip-path="url(#p9968526fd5)" style="fill: none; stroke: #6a6a6a; stroke-width: 2.5; stroke-linecap: round"/>
   </g>
   <g id="line2d_10">
    <path d="M 134.5005 121.941818 
L 166.3995 121.941818 
" clip-path="url(#p9968526fd5)" style="fill: none; stroke: #6a6a6a; stroke-width: 2.5; stroke-linecap: round"/>
   </g>
   <g id="line2d_11">
    <defs>
     <path id="m13ee6491d8" d="M 0 3.535534 
L 2.12132 0 
L 0 -3.535534 
L -2.12132 0 
z
" style="stroke: #6a6a6a; stroke-linejoin: miter"/>
    </defs>
    <g clip-path="url(#p9968526fd5)">
     <use xlink:href="#m13ee6491d8" x="150.45" y="66.96" style="fill: #6a6a6a; stroke: #6a6a6a; stroke-linejoin: miter"/>
    </g>
   </g>
   <g id="line2d_12">
    <path d="M 215.55 314.378182 
L 215.55 369.36 
" clip-path="url(#p9968526fd5)" style="fill: none; stroke: #6a6a6a; stroke-width: 2.5; stroke-linecap: round"/>
   </g>
   <g id="line2d_13">
    <path d="M 215.55 259.396364 
L 215.55 176.923636 
" clip-path="url(#p9968526fd5)" style="fill: none; stroke: #6a6a6a; stroke-width: 2.5; stroke-linecap: round"/>
   </g>
   <g id="line2d_14">
    <path d="M 199.6005 369.36 
L 231.4995 369.36 
" clip-path="url(#p9968526fd5)" style="fill: none; stroke: #6a6a6a; stroke-width: 2.5; stroke-linecap: round"/>
   </g>
   <g id="line2d_15">
    <path d="M 199.6005 176.923636 
L 231.4995 176.923636 
" clip-path="url(#p9968526fd5)" style="fill: none; stroke: #6a6a6a; stroke-width: 2.5; stroke-linecap: round"/>
   </g>
   <g id="line2d_16"/>
   <g id="line2d_17">
    <path d="M 336.45 252.523636 
L 336.45 259.396364 
" clip-path="url(#p9968526fd5)" style="fill: none; stroke: #6a6a6a; stroke-width: 2.5; stroke-linecap: round"/>
   </g>
   <g id="line2d_18">
    <path d="M 336.45 204.414545 
L 336.45 176.923636 
" clip-path="url(#p9968526fd5)" style="fill: none; stroke: #6a6a6a; stroke-width: 2.5; stroke-linecap: round"/>
   </g>
   <g id="line2d_19">
    <path d="M 320.5005 259.396364 
L 352.3995 259.396364 
" clip-path="url(#p9968526fd5)" style="fill: none; stroke: #6a6a6a; stroke-width: 2.5; stroke-linecap: round"/>
   </g>
   <g id="line2d_20">
    <path d="M 320.5005 176.923636 
L 352.3995 176.923636 
" clip-path="url(#p9968526fd5)" style="fill: none; stroke: #6a6a6a; stroke-width: 2.5; stroke-linecap: round"/>
   </g>
   <g id="line2d_21">
    <g clip-path="url(#p9968526fd5)">
     <use xlink:href="#m13ee6491d8" x="336.45" y="94.450909" style="fill: #6a6a6a; stroke: #6a6a6a; stroke-linejoin: miter"/>
     <use xlink:href="#m13ee6491d8" x="336.45" y="94.450909" style="fill: #6a6a6a; stroke: #6a6a6a; stroke-linejoin: miter"/>
    </g>
   </g>
   <g id="line2d_22">
    <path d="M 401.55 314.378182 
L 401.55 341.869091 
" clip-path="url(#p9968526fd5)" style="fill: none; stroke: #6a6a6a; stroke-width: 2.5; stroke-linecap: round"/>
   </g>
   <g id="line2d_23">
    <path d="M 401.55 259.396364 
L 401.55 204.414545 
" clip-path="url(#p9968526fd5)" style="fill: none; stroke: #6a6a6a; stroke-width: 2.5; stroke-linecap: round"/>
   </g>
   <g id="line2d_24">
    <path d="M 385.6005 341.869091 
L 417.4995 341.869091 
" clip-path="url(#p9968526fd5)" style="fill: none; stroke: #6a6a6a; stroke-width: 2.5; stroke-linecap: round"/>
   </g>
   <g id="line2d_25">
    <path d="M 385.6005 204.414545 
L 417.4995 204.414545 
" clip-path="url(#p9968526fd5)" style="fill: none; stroke: #6a6a6a; stroke-width: 2.5; stroke-linecap: round"/>
   </g>
   <g id="line2d_26"/>
   <g id="line2d_27">
    <path d="M 522.45 142.56 
L 522.45 149.432727 
" clip-path="url(#p9968526fd5)" style="fill: none; stroke: #6a6a6a; stroke-width: 2.5; stroke-linecap: round"/>
   </g>
   <g id="line2d_28">
    <path d="M 522.45 128.814545 
L 522.45 121.941818 
" clip-path="url(#p9968526fd5)" style="fill: none; stroke: #6a6a6a; stroke-width: 2.5; stroke-linecap: round"/>
   </g>
   <g id="line2d_29">
    <path d="M 506.5005 149.432727 
L 538.3995 149.432727 
" clip-path="url(#p9968526fd5)" style="fill: none; stroke: #6a6a6a; stroke-width: 2.5; stroke-linecap: round"/>
   </g>
   <g id="line2d_30">
    <path d="M 506.5005 121.941818 
L 538.3995 121.941818 
" clip-path="url(#p9968526fd5)" style="fill: none; stroke: #6a6a6a; stroke-width: 2.5; stroke-linecap: round"/>
   </g>
   <g id="line2d_31"/>
   <g id="line2d_32">
    <path d="M 587.55 286.887273 
L 587.55 286.887273 
" clip-path="url(#p9968526fd5)" style="fill: none; stroke: #6a6a6a; stroke-width: 2.5; stroke-linecap: round"/>
   </g>
   <g id="line2d_33">
    <path d="M 587.55 286.887273 
L 587.55 286.887273 
" clip-path="url(#p9968526fd5)" style="fill: none; stroke: #6a6a6a; stroke-width: 2.5; stroke-linecap: round"/>
   </g>
   <g id="line2d_34">
    <path d="M 571.6005 286.887273 
L 603.4995 286.887273 
" clip-path="url(#p9968526fd5)" style="fill: none; stroke: #6a6a6a; stroke-width: 2.5; stroke-linecap: round"/>
   </g>
   <g id="line2d_35">
    <path d="M 571.6005 286.887273 
L 603.4995 286.887273 
" clip-path="url(#p9968526fd5)" style="fill: none; stroke: #6a6a6a; stroke-width: 2.5; stroke-linecap: round"/>
   </g>
   <g id="line2d_36"/>
   <g id="line2d_37">
    <path d="M 118.551 204.414545 
L 182.349 204.414545 
" clip-path="url(#p9968526fd5)" style="fill: none; stroke: #6a6a6a; stroke-width: 2.5; stroke-linecap: round"/>
   </g>
   <g id="line2d_38">
    <path d="M 183.651 286.887273 
L 247.449 286.887273 
" clip-path="url(#p9968526fd5)" style="fill: none; stroke: #6a6a6a; stroke-width: 2.5; stroke-linecap: round"/>
   </g>
   <g id="line2d_39">
    <path d="M 304.551 231.905455 
L 368.349 231.905455 
" clip-path="url(#p9968526fd5)" style="fill: none; stroke: #6a6a6a; stroke-width: 2.5; stroke-linecap: round"/>
   </g>
   <g id="line2d_40">
    <path d="M 369.651 259.396364 
L 433.449 259.396364 
" clip-path="url(#p9968526fd5)" style="fill: none; stroke: #6a6a6a; stroke-width: 2.5; stroke-linecap: round"/>
   </g>
   <g id="line2d_41">
    <path d="M 490.551 135.687273 
L 554.349 135.687273 
" clip-path="url(#p9968526fd5)" style="fill: none; stroke: #6a6a6a; stroke-width: 2.5; stroke-linecap: round"/>
   </g>
   <g id="line2d_42">
    <path d="M 555.651 286.887273 
L 619.449 286.887273 
" clip-path="url(#p9968526fd5)" style="fill: none; stroke: #6a6a6a; stroke-width: 2.5; stroke-linecap: round"/>
   </g>
   <g id="patch_11">
    <path d="M 90 384.48 
L 90 51.84 
" style="fill: none; stroke: #cccccc; stroke-width: 1.25; stroke-linejoin: miter; stroke-linecap: square"/>
   </g>
   <g id="patch_12">
    <path d="M 648 384.48 
L 648 51.84 
" style="fill: none; stroke: #cccccc; stroke-width: 1.25; stroke-linejoin: miter; stroke-linecap: square"/>
   </g>
   <g id="patch_13">
    <path d="M 90 384.48 
L 648 384.48 
" style="fill: none; stroke: #cccccc; stroke-width: 1.25; stroke-linejoin: miter; stroke-linecap: square"/>
   </g>
   <g id="patch_14">
    <path d="M 90 51.84 
L 648 51.84 
" style="fill: none; stroke: #cccccc; stroke-width: 1.25; stroke-linejoin: miter; stroke-linecap: square"/>
   </g>
   <g id="text_12">
    <!-- Kaufwahrscheinlichkeit beeinflusst durch positive/negative Rezensionen nach Wohnort -->
    <g style="fill: #262626" transform="translate(138.98625 45.84) scale(0.12 -0.12)">
     <defs>
      <path id="ArialMT-20" transform="scale(0.015625)"/>
      <path id="ArialMT-62" d="M 941 0 
L 419 0 
L 419 4581 
L 981 4581 
L 981 2947 
Q 1338 3394 1891 3394 
Q 2197 3394 2470 3270 
Q 2744 3147 2920 2923 
Q 3097 2700 3197 2384 
Q 3297 2069 3297 1709 
Q 3297 856 2875 390 
Q 2453 -75 1863 -75 
Q 1275 -75 941 416 
L 941 0 
z
M 934 1684 
Q 934 1088 1097 822 
Q 1363 388 1816 388 
Q 2184 388 2453 708 
Q 2722 1028 2722 1663 
Q 2722 2313 2464 2622 
Q 2206 2931 1841 2931 
Q 1472 2931 1203 2611 
Q 934 2291 934 1684 
z
" transform="scale(0.015625)"/>
      <path id="ArialMT-70" d="M 422 -1272 
L 422 3319 
L 934 3319 
L 934 2888 
Q 1116 3141 1344 3267 
Q 1572 3394 1897 3394 
Q 2322 3394 2647 3175 
Q 2972 2956 3137 2557 
Q 3303 2159 3303 1684 
Q 3303 1175 3120 767 
Q 2938 359 2589 142 
Q 2241 -75 1856 -75 
Q 1575 -75 1351 44 
Q 1128 163 984 344 
L 984 -1272 
L 422 -1272 
z
M 931 1641 
Q 931 1000 1190 694 
Q 1450 388 1819 388 
Q 2194 388 2461 705 
Q 2728 1022 2728 1688 
Q 2728 2322 2467 2637 
Q 2206 2953 1844 2953 
Q 1484 2953 1207 2617 
Q 931 2281 931 1641 
z
" transform="scale(0.015625)"/>
      <path id="ArialMT-76" d="M 1344 0 
L 81 3319 
L 675 3319 
L 1388 1331 
Q 1503 1009 1600 663 
Q 1675 925 1809 1294 
L 2547 3319 
L 3125 3319 
L 1869 0 
L 1344 0 
z
" transform="scale(0.015625)"/>
      <path id="ArialMT-2f" d="M 0 -78 
L 1328 4659 
L 1778 4659 
L 453 -78 
L 0 -78 
z
" transform="scale(0.015625)"/>
      <path id="ArialMT-67" d="M 319 -275 
L 866 -356 
Q 900 -609 1056 -725 
Q 1266 -881 1628 -881 
Q 2019 -881 2231 -725 
Q 2444 -569 2519 -288 
Q 2563 -116 2559 434 
Q 2191 0 1641 0 
Q 956 0 581 494 
Q 206 988 206 1678 
Q 206 2153 378 2554 
Q 550 2956 876 3175 
Q 1203 3394 1644 3394 
Q 2231 3394 2613 2919 
L 2613 3319 
L 3131 3319 
L 3131 450 
Q 3131 -325 2973 -648 
Q 2816 -972 2473 -1159 
Q 2131 -1347 1631 -1347 
Q 1038 -1347 672 -1080 
Q 306 -813 319 -275 
z
M 784 1719 
Q 784 1066 1043 766 
Q 1303 466 1694 466 
Q 2081 466 2343 764 
Q 2606 1063 2606 1700 
Q 2606 2309 2336 2618 
Q 2066 2928 1684 2928 
Q 1309 2928 1046 2623 
Q 784 2319 784 1719 
z
" transform="scale(0.015625)"/>
      <path id="ArialMT-52" d="M 503 0 
L 503 4581 
L 2534 4581 
Q 3147 4581 3465 4457 
Q 3784 4334 3975 4021 
Q 4166 3709 4166 3331 
Q 4166 2844 3850 2509 
Q 3534 2175 2875 2084 
Q 3116 1969 3241 1856 
Q 3506 1613 3744 1247 
L 4541 0 
L 3778 0 
L 3172 953 
Q 2906 1366 2734 1584 
Q 2563 1803 2427 1890 
Q 2291 1978 2150 2013 
Q 2047 2034 1813 2034 
L 1109 2034 
L 1109 0 
L 503 0 
z
M 1109 2559 
L 2413 2559 
Q 2828 2559 3062 2645 
Q 3297 2731 3419 2920 
Q 3541 3109 3541 3331 
Q 3541 3656 3305 3865 
Q 3069 4075 2559 4075 
L 1109 4075 
L 1109 2559 
z
" transform="scale(0.015625)"/>
     </defs>
     <use xlink:href="#ArialMT-4b"/>
     <use xlink:href="#ArialMT-61" x="66.699219"/>
     <use xlink:href="#ArialMT-75" x="122.314453"/>
     <use xlink:href="#ArialMT-66" x="177.929688"/>
     <use xlink:href="#ArialMT-77" x="205.712891"/>
     <use xlink:href="#ArialMT-61" x="277.929688"/>
     <use xlink:href="#ArialMT-68" x="333.544922"/>
     <use xlink:href="#ArialMT-72" x="389.160156"/>
     <use xlink:href="#ArialMT-73" x="422.460938"/>
     <use xlink:href="#ArialMT-63" x="472.460938"/>
     <use xlink:href="#ArialMT-68" x="522.460938"/>
     <use xlink:href="#ArialMT-65" x="578.076172"/>
     <use xlink:href="#ArialMT-69" x="633.691406"/>
     <use xlink:href="#ArialMT-6e" x="655.908203"/>
     <use xlink:href="#ArialMT-6c" x="711.523438"/>
     <use xlink:href="#ArialMT-69" x="733.740234"/>
     <use xlink:href="#ArialMT-63" x="755.957031"/>
     <use xlink:href="#ArialMT-68" x="805.957031"/>
     <use xlink:href="#ArialMT-6b" x="861.572266"/>
     <use xlink:href="#ArialMT-65" x="911.572266"/>
     <use xlink:href="#ArialMT-69" x="967.1875"/>
     <use xlink:href="#ArialMT-74" x="989.404297"/>
     <use xlink:href="#ArialMT-20" x="1017.1875"/>
     <use xlink:href="#ArialMT-62" x="1044.970703"/>
     <use xlink:href="#ArialMT-65" x="1100.585938"/>
     <use xlink:href="#ArialMT-65" x="1156.201172"/>
     <use xlink:href="#ArialMT-69" x="1211.816406"/>
     <use xlink:href="#ArialMT-6e" x="1234.033203"/>
     <use xlink:href="#ArialMT-66" x="1289.648438"/>
     <use xlink:href="#ArialMT-6c" x="1317.431641"/>
     <use xlink:href="#ArialMT-75" x="1339.648438"/>
     <use xlink:href="#ArialMT-73" x="1395.263672"/>
     <use xlink:href="#ArialMT-73" x="1445.263672"/>
     <use xlink:href="#ArialMT-74" x="1495.263672"/>
     <use xlink:href="#ArialMT-20" x="1523.046875"/>
     <use xlink:href="#ArialMT-64" x="1550.830078"/>
     <use xlink:href="#ArialMT-75" x="1606.445312"/>
     <use xlink:href="#ArialMT-72" x="1662.060547"/>
     <use xlink:href="#ArialMT-63" x="1695.361328"/>
     <use xlink:href="#ArialMT-68" x="1745.361328"/>
     <use xlink:href="#ArialMT-20" x="1800.976562"/>
     <use xlink:href="#ArialMT-70" x="1828.759766"/>
     <use xlink:href="#ArialMT-6f" x="1884.375"/>
     <use xlink:href="#ArialMT-73" x="1939.990234"/>
     <use xlink:href="#ArialMT-69" x="1989.990234"/>
     <use xlink:href="#ArialMT-74" x="2012.207031"/>
     <use xlink:href="#ArialMT-69" x="2039.990234"/>
     <use xlink:href="#ArialMT-76" x="2062.207031"/>
     <use xlink:href="#ArialMT-65" x="2112.207031"/>
     <use xlink:href="#ArialMT-2f" x="2167.822266"/>
     <use xlink:href="#ArialMT-6e" x="2195.605469"/>
     <use xlink:href="#ArialMT-65" x="2251.220703"/>
     <use xlink:href="#ArialMT-67" x="2306.835938"/>
     <use xlink:href="#ArialMT-61" x="2362.451172"/>
     <use xlink:href="#ArialMT-74" x="2418.066406"/>
     <use xlink:href="#ArialMT-69" x="2445.849609"/>
     <use xlink:href="#ArialMT-76" x="2468.066406"/>
     <use xlink:href="#ArialMT-65" x="2518.066406"/>
     <use xlink:href="#ArialMT-20" x="2573.681641"/>
     <use xlink:href="#ArialMT-52" x="2601.464844"/>
     <use xlink:href="#ArialMT-65" x="2673.681641"/>
     <use xlink:href="#ArialMT-7a" x="2729.296875"/>
     <use xlink:href="#ArialMT-65" x="2779.296875"/>
     <use xlink:href="#ArialMT-6e" x="2834.912109"/>
     <use xlink:href="#ArialMT-73" x="2890.527344"/>
     <use xlink:href="#ArialMT-69" x="2940.527344"/>
     <use xlink:href="#ArialMT-6f" x="2962.744141"/>
     <use xlink:href="#ArialMT-6e" x="3018.359375"/>
     <use xlink:href="#ArialMT-65" x="3073.974609"/>
     <use xlink:href="#ArialMT-6e" x="3129.589844"/>
     <use xlink:href="#ArialMT-20" x="3185.205078"/>
     <use xlink:href="#ArialMT-6e" x="3212.988281"/>
     <use xlink:href="#ArialMT-61" x="3268.603516"/>
     <use xlink:href="#ArialMT-63" x="3324.21875"/>
     <use xlink:href="#ArialMT-68" x="3374.21875"/>
     <use xlink:href="#ArialMT-20" x="3429.833984"/>
     <use xlink:href="#ArialMT-57" x="3457.617188"/>
     <use xlink:href="#ArialMT-6f" x="3550.251953"/>
     <use xlink:href="#ArialMT-68" x="3605.867188"/>
     <use xlink:href="#ArialMT-6e" x="3661.482422"/>
     <use xlink:href="#ArialMT-6f" x="3717.097656"/>
     <use xlink:href="#ArialMT-72" x="3772.712891"/>
     <use xlink:href="#ArialMT-74" x="3806.013672"/>
    </g>
   </g>
   <g id="legend_1">
    <g id="patch_15">
     <path d="M 563.514844 108.362969 
L 640.3 108.362969 
Q 642.5 108.362969 642.5 106.162969 
L 642.5 59.54 
Q 642.5 57.34 640.3 57.34 
L 563.514844 57.34 
Q 561.314844 57.34 561.314844 59.54 
L 561.314844 106.162969 
Q 561.314844 108.362969 563.514844 108.362969 
z
" style="fill: #ffffff; opacity: 0.8; stroke: #cccccc; stroke-linejoin: miter"/>
    </g>
    <g id="text_13">
     <!-- Rezensionen -->
     <g style="fill: #262626" transform="translate(566.885234 70.329375) scale(0.12 -0.12)">
      <use xlink:href="#ArialMT-52"/>
      <use xlink:href="#ArialMT-65" x="72.216797"/>
      <use xlink:href="#ArialMT-7a" x="127.832031"/>
      <use xlink:href="#ArialMT-65" x="177.832031"/>
      <use xlink:href="#ArialMT-6e" x="233.447266"/>
      <use xlink:href="#ArialMT-73" x="289.0625"/>
      <use xlink:href="#ArialMT-69" x="339.0625"/>
      <use xlink:href="#ArialMT-6f" x="361.279297"/>
      <use xlink:href="#ArialMT-6e" x="416.894531"/>
      <use xlink:href="#ArialMT-65" x="472.509766"/>
      <use xlink:href="#ArialMT-6e" x="528.125"/>
     </g>
    </g>
    <g id="patch_16">
     <path d="M 565.714844 86.087969 
L 587.714844 86.087969 
L 587.714844 78.387969 
L 565.714844 78.387969 
z
" style="fill: #96cac1; stroke: #6a6a6a; stroke-width: 1.25; stroke-linejoin: miter"/>
    </g>
    <g id="text_14">
     <!-- positive -->
     <g style="fill: #262626" transform="translate(596.514844 86.087969) scale(0.11 -0.11)">
      <use xlink:href="#ArialMT-70"/>
      <use xlink:href="#ArialMT-6f" x="55.615234"/>
      <use xlink:href="#ArialMT-73" x="111.230469"/>
      <use xlink:href="#ArialMT-69" x="161.230469"/>
      <use xlink:href="#ArialMT-74" x="183.447266"/>
      <use xlink:href="#ArialMT-69" x="211.230469"/>
      <use xlink:href="#ArialMT-76" x="233.447266"/>
      <use xlink:href="#ArialMT-65" x="283.447266"/>
     </g>
    </g>
    <g id="patch_17">
     <path d="M 565.714844 101.647812 
L 587.714844 101.647812 
L 587.714844 93.947812 
L 565.714844 93.947812 
z
" style="fill: #f6f6bc; stroke: #6a6a6a; stroke-width: 1.25; stroke-linejoin: miter"/>
    </g>
    <g id="text_15">
     <!-- negative -->
     <g style="fill: #262626" transform="translate(596.514844 101.647812) scale(0.11 -0.11)">
      <use xlink:href="#ArialMT-6e"/>
      <use xlink:href="#ArialMT-65" x="55.615234"/>
      <use xlink:href="#ArialMT-67" x="111.230469"/>
      <use xlink:href="#ArialMT-61" x="166.845703"/>
      <use xlink:href="#ArialMT-74" x="222.460938"/>
      <use xlink:href="#ArialMT-69" x="250.244141"/>
      <use xlink:href="#ArialMT-76" x="272.460938"/>
      <use xlink:href="#ArialMT-65" x="322.460938"/>
     </g>
    </g>
   </g>
  </g>
 </g>
 <defs>
  <clipPath id="p9968526fd5">
   <rect x="90" y="51.84" width="558" height="332.64"/>
  </clipPath>
 </defs>
</svg>
