<svg version="1.1" viewBox="0.0 0.0 600.0 371.0" fill="none" stroke="none" stroke-linecap="square" stroke-miterlimit="10" width="600" height="371" xmlns:xlink="http://www.w3.org/1999/xlink" xmlns="http://www.w3.org/2000/svg"><path fill="#ffffff" d="M0 0L600.0 0L600.0 371.0L0 371.0L0 0Z" fill-rule="nonzero"/><path fill="#fbbc04" d="M269.06967 58.167576C279.23788 56.006256 289.6046 54.916668 300.0 54.916668L300.0 203.68333Z" fill-rule="nonzero"/><path fill="#ea4335" d="M152.0483 219.23369C144.08932 143.50923 194.59198 73.9983 269.06967 58.167576L300.0 203.68333Z" fill-rule="nonzero"/><path fill="#4285f4" d="M300.0 54.916668C380.14084 54.916668 445.87918 118.39942 448.67606 198.49146C451.47293 278.58347 390.32306 346.49728 310.37744 352.08762C230.43181 357.67795 160.4253 298.93552 152.0483 219.23369L300.0 203.68333Z" fill-rule="nonzero"/><path fill="#1a1a1a" d="M19.096874 63.15104L20.159374 63.05729Q20.2375 63.71354 20.51875 64.11979Q20.8 64.52604 21.378124 64.791664Q21.971874 65.041664 22.70625 65.041664Q23.346874 65.041664 23.846874 64.854164Q24.346874 64.65104 24.58125 64.322914Q24.83125 63.979164 24.83125 63.58854Q24.83125 63.18229 24.596874 62.885414Q24.3625 62.572914 23.83125 62.36979Q23.471874 62.229164 22.284374 61.947914Q21.1125 61.666664 20.64375 61.416664Q20.01875 61.08854 19.721874 60.61979Q19.425 60.135414 19.425 59.541664Q19.425 58.90104 19.784374 58.33854Q20.159374 57.760414 20.8625 57.479164Q21.58125 57.18229 22.440624 57.18229Q23.39375 57.18229 24.128124 57.49479Q24.8625 57.791664 25.253124 58.40104Q25.64375 58.99479 25.675 59.74479L24.58125 59.822914Q24.4875 59.010414 23.971874 58.604164Q23.471874 58.18229 22.4875 58.18229Q21.45625 58.18229 20.9875 58.55729Q20.51875 58.93229 20.51875 59.46354Q20.51875 59.93229 20.846874 60.229164Q21.175 60.52604 22.55 60.83854Q23.940624 61.15104 24.45625 61.385414Q25.20625 61.74479 25.565624 62.27604Q25.925 62.791664 25.925 63.49479Q25.925 64.18229 25.534374 64.791664Q25.14375 65.385414 24.409374 65.729164Q23.675 66.05729 22.753124 66.05729Q21.58125 66.05729 20.784374 65.729164Q20.003124 65.385414 19.55 64.697914Q19.1125 64.010414 19.096874 63.15104ZM31.409374 63.635414L32.440624 63.77604Q32.26875 64.83854 31.565624 65.447914Q30.8625 66.05729 29.846874 66.05729Q28.565624 66.05729 27.784374 65.229164Q27.01875 64.385414 27.01875 62.822914Q27.01875 61.822914 27.346874 61.072914Q27.690624 60.30729 28.3625 59.93229Q29.05 59.55729 29.8625 59.55729Q30.8625 59.55729 31.503124 60.072914Q32.159374 60.572914 32.346874 61.52604L31.315624 61.68229Q31.175 61.05729 30.8 60.74479Q30.425 60.416664 29.89375 60.416664Q29.096874 60.416664 28.596874 60.99479Q28.096874 61.55729 28.096874 62.791664Q28.096874 64.05729 28.58125 64.61979Q29.065624 65.18229 29.83125 65.18229Q30.45625 65.18229 30.8625 64.80729Q31.284374 64.43229 31.409374 63.635414ZM33.346874 65.916664L33.346874 57.322914L34.39375 57.322914L34.39375 60.40104Q35.128124 59.55729 36.253124 59.55729Q36.95625 59.55729 37.45625 59.83854Q37.971874 60.104164 38.190624 60.58854Q38.409374 61.05729 38.409374 61.979164L38.409374 65.916664L37.3625 65.916664L37.3625 61.979164Q37.3625 61.18229 37.01875 60.822914Q36.675 60.46354 36.05 60.46354Q35.58125 60.46354 35.159374 60.71354Q34.753124 60.947914 34.565624 61.36979Q34.39375 61.77604 34.39375 62.510414L34.39375 65.916664L33.346874 65.916664ZM41.4875 65.916664L39.58125 59.697914L40.675 59.697914L41.659374 63.291664L42.034374 64.61979Q42.065624 64.52604 42.3625 63.33854L43.346874 59.697914L44.425 59.697914L45.3625 63.30729L45.675 64.49479L46.034374 63.291664L47.096874 59.697914L48.128124 59.697914L46.175 65.916664L45.08125 65.916664L44.096874 62.18229L43.846874 61.135414L42.596874 65.916664L41.4875 65.916664ZM53.596874 63.916664L54.690624 64.041664Q54.440624 64.99479 53.7375 65.52604Q53.034374 66.05729 51.95625 66.05729Q50.596874 66.05729 49.784374 65.21354Q48.9875 64.36979 48.9875 62.854164Q48.9875 61.291664 49.8 60.43229Q50.6125 59.55729 51.89375 59.55729Q53.14375 59.55729 53.925 60.40104Q54.721874 61.24479 54.721874 62.791664Q54.721874 62.885414 54.721874 63.072914L50.08125 63.072914Q50.14375 64.104164 50.659374 64.65104Q51.175 65.18229 51.95625 65.18229Q52.534374 65.18229 52.940624 64.885414Q53.3625 64.572914 53.596874 63.916664ZM50.14375 62.21354L53.6125 62.21354Q53.55 61.416664 53.221874 61.02604Q52.70625 60.416664 51.909374 60.416664Q51.175 60.416664 50.675 60.90104Q50.190624 61.385414 50.14375 62.21354ZM56.346874 58.541664L56.346874 57.322914L57.409374 57.322914L57.409374 58.541664L56.346874 58.541664ZM56.346874 65.916664L56.346874 59.697914L57.409374 59.697914L57.409374 65.916664L56.346874 65.916664ZM58.784374 65.916664L58.784374 65.05729L62.753124 60.510414Q62.065624 60.541664 61.55 60.541664L59.01875 60.541664L59.01875 59.697914L64.1125 59.697914L64.1125 60.385414L60.7375 64.33854L60.08125 65.05729Q60.8 65.010414 61.409374 65.010414L64.3 65.010414L64.3 65.916664L58.784374 65.916664Z" fill-rule="nonzero"/><path fill="#9e9e9e" d="M19.05 80.65104L20.1125 80.510414Q20.284374 81.40104 20.721874 81.80729Q21.159374 82.197914 21.784374 82.197914Q22.534374 82.197914 23.05 81.68229Q23.565624 81.166664 23.565624 80.40104Q23.565624 79.68229 23.08125 79.21354Q22.6125 78.729164 21.878124 78.729164Q21.58125 78.729164 21.128124 78.854164L21.253124 77.916664Q21.3625 77.93229 21.425 77.93229Q22.096874 77.93229 22.628124 77.58854Q23.175 77.229164 23.175 76.49479Q23.175 75.916664 22.784374 75.541664Q22.39375 75.15104 21.76875 75.15104Q21.159374 75.15104 20.7375 75.541664Q20.33125 75.93229 20.221874 76.697914L19.159374 76.510414Q19.346874 75.46354 20.034374 74.885414Q20.721874 74.291664 21.7375 74.291664Q22.440624 74.291664 23.034374 74.604164Q23.628124 74.90104 23.940624 75.416664Q24.253124 75.93229 24.253124 76.52604Q24.253124 77.072914 23.95625 77.541664Q23.659374 77.99479 23.08125 78.260414Q23.83125 78.43229 24.253124 78.99479Q24.675 79.541664 24.675 80.385414Q24.675 81.510414 23.846874 82.291664Q23.034374 83.072914 21.784374 83.072914Q20.659374 83.072914 19.909374 82.40104Q19.159374 81.71354 19.05 80.65104ZM26.64375 82.916664L26.64375 81.71354L27.846874 81.71354L27.846874 82.916664L26.64375 82.916664ZM29.05 80.65104L30.1125 80.510414Q30.284374 81.40104 30.721874 81.80729Q31.159374 82.197914 31.784374 82.197914Q32.534374 82.197914 33.05 81.68229Q33.565624 81.166664 33.565624 80.40104Q33.565624 79.68229 33.08125 79.21354Q32.6125 78.729164 31.878124 78.729164Q31.58125 78.729164 31.128124 78.854164L31.253124 77.916664Q31.3625 77.93229 31.425 77.93229Q32.096874 77.93229 32.628124 77.58854Q33.175 77.229164 33.175 76.49479Q33.175 75.916664 32.784374 75.541664Q32.39375 75.15104 31.76875 75.15104Q31.159374 75.15104 30.7375 75.541664Q30.33125 75.93229 30.221874 76.697914L29.159374 76.510414Q29.346874 75.46354 30.034374 74.885414Q30.721874 74.291664 31.7375 74.291664Q32.440624 74.291664 33.034374 74.604164Q33.628124 74.90104 33.940624 75.416664Q34.253124 75.93229 34.253124 76.52604Q34.253124 77.072914 33.95625 77.541664Q33.659374 77.99479 33.08125 78.260414Q33.83125 78.43229 34.253124 78.99479Q34.675 79.541664 34.675 80.385414Q34.675 81.510414 33.846874 82.291664Q33.034374 83.072914 31.784374 83.072914Q30.659374 83.072914 29.909374 82.40104Q29.159374 81.71354 29.05 80.65104ZM36.253124 76.385414Q36.253124 75.46354 36.70625 74.822914Q37.175 74.18229 38.05 74.18229Q38.8625 74.18229 39.39375 74.760414Q39.925 75.33854 39.925 76.447914Q39.925 77.541664 39.378124 78.135414Q38.846874 78.71354 38.065624 78.71354Q37.284374 78.71354 36.76875 78.135414Q36.253124 77.55729 36.253124 76.385414ZM38.08125 74.90104Q37.690624 74.90104 37.425 75.24479Q37.175 75.58854 37.175 76.49479Q37.175 77.322914 37.425 77.666664Q37.690624 77.99479 38.08125 77.99479Q38.4875 77.99479 38.7375 77.65104Q39.003124 77.30729 39.003124 76.416664Q39.003124 75.572914 38.7375 75.24479Q38.471874 74.90104 38.08125 74.90104ZM38.08125 83.229164L42.784374 74.18229L43.64375 74.18229L38.95625 83.229164L38.08125 83.229164ZM41.8 80.90104Q41.8 79.979164 42.253124 79.33854Q42.721874 78.697914 43.6125 78.697914Q44.425 78.697914 44.95625 79.27604Q45.4875 79.83854 45.4875 80.96354Q45.4875 82.05729 44.940624 82.65104Q44.409374 83.229164 43.6125 83.229164Q42.846874 83.229164 42.315624 82.65104Q41.8 82.072914 41.8 80.90104ZM43.64375 79.416664Q43.2375 79.416664 42.971874 79.760414Q42.721874 80.104164 42.721874 81.010414Q42.721874 81.822914 42.9875 82.166664Q43.253124 82.510414 43.64375 82.510414Q44.034374 82.510414 44.3 82.166664Q44.565624 81.822914 44.565624 80.916664Q44.565624 80.08854 44.3 79.760414Q44.034374 79.416664 43.64375 79.416664Z" fill-rule="nonzero"/><path stroke="#757575" stroke-width="1.0" stroke-linecap="butt" d="M18.55 70.416664L145.23334 70.416664L285.22717 63.12921" fill-rule="nonzero"/><path fill="#9e9e9e" d="M287.22717 63.12921C287.22717 62.024643 286.33173 61.12921 285.22717 61.12921C284.1226 61.12921 283.22717 62.024643 283.22717 63.12921C283.22717 64.23378 284.1226 65.12921 285.22717 65.12921C286.33173 65.12921 287.22717 64.23378 287.22717 63.12921" fill-rule="nonzero"/><path fill="#1a1a1a" d="M25.6125 113.097L26.7375 113.393875Q26.378124 114.7845 25.45625 115.518875Q24.534374 116.25325 23.190624 116.25325Q21.8 116.25325 20.925 115.69075Q20.05 115.12825 19.596874 114.06575Q19.14375 112.987625 19.14375 111.75325Q19.14375 110.4095 19.659374 109.4095Q20.175 108.4095 21.1125 107.893875Q22.065624 107.37825 23.20625 107.37825Q24.4875 107.37825 25.3625 108.0345Q26.253124 108.69075 26.596874 109.87825L25.471874 110.143875Q25.175 109.206375 24.596874 108.7845Q24.034374 108.347 23.175 108.347Q22.190624 108.347 21.51875 108.831375Q20.8625 109.300125 20.58125 110.097Q20.315624 110.893875 20.315624 111.75325Q20.315624 112.847 20.628124 113.6595Q20.95625 114.472 21.628124 114.87825Q22.3 115.2845 23.096874 115.2845Q24.05 115.2845 24.70625 114.737625Q25.378124 114.19075 25.6125 113.097ZM28.346874 116.112625L28.346874 107.518875L29.39375 107.518875L29.39375 110.597Q30.128124 109.75325 31.253124 109.75325Q31.95625 109.75325 32.45625 110.0345Q32.971874 110.300125 33.190624 110.7845Q33.409374 111.25325 33.409374 112.175125L33.409374 116.112625L32.3625 116.112625L32.3625 112.175125Q32.3625 111.37825 32.01875 111.018875Q31.675 110.6595 31.05 110.6595Q30.58125 110.6595 30.159374 110.9095Q29.753124 111.143875 29.565624 111.56575Q29.39375 111.972 29.39375 112.706375L29.39375 116.112625L28.346874 116.112625ZM35.346874 108.737625L35.346874 107.518875L36.409374 107.518875L36.409374 108.737625L35.346874 108.737625ZM35.346874 116.112625L35.346874 109.893875L36.409374 109.893875L36.409374 116.112625L35.346874 116.112625ZM38.346874 116.112625L38.346874 109.893875L39.284374 109.893875L39.284374 110.768875Q39.971874 109.75325 41.26875 109.75325Q41.83125 109.75325 42.3 109.956375Q42.784374 110.1595 43.01875 110.487625Q43.253124 110.81575 43.346874 111.25325Q43.39375 111.550125 43.39375 112.2845L43.39375 116.112625L42.346874 116.112625L42.346874 112.331375Q42.346874 111.675125 42.221874 111.362625Q42.096874 111.050125 41.784374 110.862625Q41.471874 110.6595 41.05 110.6595Q40.378124 110.6595 39.878124 111.097Q39.39375 111.518875 39.39375 112.706375L39.39375 116.112625L38.346874 116.112625ZM49.409374 115.347Q48.815624 115.847 48.26875 116.050125Q47.7375 116.25325 47.1125 116.25325Q46.08125 116.25325 45.534374 115.75325Q44.9875 115.25325 44.9875 114.472Q44.9875 114.018875 45.190624 113.643875Q45.39375 113.25325 45.7375 113.0345Q46.08125 112.800125 46.503124 112.69075Q46.8 112.597 47.440624 112.518875Q48.70625 112.37825 49.315624 112.1595Q49.315624 111.94075 49.315624 111.893875Q49.315624 111.237625 49.01875 110.972Q48.6125 110.62825 47.815624 110.62825Q47.08125 110.62825 46.721874 110.893875Q46.3625 111.143875 46.190624 111.800125L45.159374 111.6595Q45.3 111.00325 45.628124 110.597Q45.95625 110.19075 46.565624 109.972Q47.175 109.75325 47.971874 109.75325Q48.76875 109.75325 49.26875 109.94075Q49.76875 110.12825 50.003124 110.4095Q50.2375 110.69075 50.33125 111.12825Q50.378124 111.393875 50.378124 112.097L50.378124 113.50325Q50.378124 114.972 50.440624 115.362625Q50.51875 115.75325 50.721874 116.112625L49.6125 116.112625Q49.45625 115.7845 49.409374 115.347ZM49.315624 112.987625Q48.7375 113.222 47.596874 113.393875Q46.940624 113.487625 46.675 113.612625Q46.409374 113.722 46.253124 113.94075Q46.1125 114.1595 46.1125 114.44075Q46.1125 114.862625 46.425 115.143875Q46.753124 115.425125 47.3625 115.425125Q47.971874 115.425125 48.440624 115.1595Q48.925 114.893875 49.14375 114.425125Q49.315624 114.06575 49.315624 113.37825L49.315624 112.987625Z" fill-rule="nonzero"/><path fill="#9e9e9e" d="M24.596874 132.097L24.596874 133.11263L18.909374 133.11263Q18.909374 132.73763 19.034374 132.37825Q19.253124 131.80013 19.721874 131.23763Q20.20625 130.67513 21.1125 129.94075Q22.51875 128.7845 23.003124 128.11263Q23.503124 127.44075 23.503124 126.847Q23.503124 126.222 23.05 125.800125Q22.596874 125.362625 21.878124 125.362625Q21.1125 125.362625 20.659374 125.81575Q20.20625 126.268875 20.190624 127.081375L19.1125 126.972Q19.221874 125.75325 19.940624 125.12825Q20.675 124.487625 21.909374 124.487625Q23.14375 124.487625 23.8625 125.175125Q24.58125 125.862625 24.58125 126.87825Q24.58125 127.393875 24.3625 127.893875Q24.159374 128.37825 23.659374 128.94075Q23.175 129.48763 22.05 130.44075Q21.096874 131.23763 20.815624 131.5345Q20.55 131.81575 20.378124 132.097L24.596874 132.097ZM26.05 130.847L27.1125 130.70638Q27.284374 131.597 27.721874 132.00325Q28.159374 132.39388 28.784374 132.39388Q29.534374 132.39388 30.05 131.87825Q30.565624 131.36263 30.565624 130.597Q30.565624 129.87825 30.08125 129.4095Q29.6125 128.92513 28.878124 128.92513Q28.58125 128.92513 28.128124 129.05013L28.253124 128.11263Q28.3625 128.12825 28.425 128.12825Q29.096874 128.12825 29.628124 127.7845Q30.175 127.425125 30.175 126.69075Q30.175 126.112625 29.784374 125.737625Q29.39375 125.347 28.76875 125.347Q28.159374 125.347 27.7375 125.737625Q27.33125 126.12825 27.221874 126.893875L26.159374 126.706375Q26.346874 125.6595 27.034374 125.081375Q27.721874 124.487625 28.7375 124.487625Q29.440624 124.487625 30.034374 124.800125Q30.628124 125.097 30.940624 125.612625Q31.253124 126.12825 31.253124 126.722Q31.253124 127.268875 30.95625 127.737625Q30.659374 128.19075 30.08125 128.45638Q30.83125 128.62825 31.253124 129.19075Q31.675 129.73763 31.675 130.58138Q31.675 131.70638 30.846874 132.48763Q30.034374 133.26888 28.784374 133.26888Q27.659374 133.26888 26.909374 132.597Q26.159374 131.9095 26.05 130.847ZM33.64375 133.11263L33.64375 131.9095L34.846874 131.9095L34.846874 133.11263L33.64375 133.11263ZM36.05 130.847L37.1125 130.70638Q37.284374 131.597 37.721874 132.00325Q38.159374 132.39388 38.784374 132.39388Q39.534374 132.39388 40.05 131.87825Q40.565624 131.36263 40.565624 130.597Q40.565624 129.87825 40.08125 129.4095Q39.6125 128.92513 38.878124 128.92513Q38.58125 128.92513 38.128124 129.05013L38.253124 128.11263Q38.3625 128.12825 38.425 128.12825Q39.096874 128.12825 39.628124 127.7845Q40.175 127.425125 40.175 126.69075Q40.175 126.112625 39.784374 125.737625Q39.39375 125.347 38.76875 125.347Q38.159374 125.347 37.7375 125.737625Q37.33125 126.12825 37.221874 126.893875L36.159374 126.706375Q36.346874 125.6595 37.034374 125.081375Q37.721874 124.487625 38.7375 124.487625Q39.440624 124.487625 40.034374 124.800125Q40.628124 125.097 40.940624 125.612625Q41.253124 126.12825 41.253124 126.722Q41.253124 127.268875 40.95625 127.737625Q40.659374 128.19075 40.08125 128.45638Q40.83125 128.62825 41.253124 129.19075Q41.675 129.73763 41.675 130.58138Q41.675 131.70638 40.846874 132.48763Q40.034374 133.26888 38.784374 133.26888Q37.659374 133.26888 36.909374 132.597Q36.159374 131.9095 36.05 130.847ZM43.253124 126.581375Q43.253124 125.6595 43.70625 125.018875Q44.175 124.37825 45.05 124.37825Q45.8625 124.37825 46.39375 124.956375Q46.925 125.5345 46.925 126.643875Q46.925 127.737625 46.378124 128.33138Q45.846874 128.9095 45.065624 128.9095Q44.284374 128.9095 43.76875 128.33138Q43.253124 127.75325 43.253124 126.581375ZM45.08125 125.097Q44.690624 125.097 44.425 125.44075Q44.175 125.7845 44.175 126.69075Q44.175 127.518875 44.425 127.862625Q44.690624 128.19075 45.08125 128.19075Q45.4875 128.19075 45.7375 127.847Q46.003124 127.50325 46.003124 126.612625Q46.003124 125.768875 45.7375 125.44075Q45.471874 125.097 45.08125 125.097ZM45.08125 133.42513L49.784374 124.37825L50.64375 124.37825L45.95625 133.42513L45.08125 133.42513ZM48.8 131.097Q48.8 130.17513 49.253124 129.5345Q49.721874 128.89388 50.6125 128.89388Q51.425 128.89388 51.95625 129.472Q52.4875 130.0345 52.4875 131.1595Q52.4875 132.25325 51.940624 132.847Q51.409374 133.42513 50.6125 133.42513Q49.846874 133.42513 49.315624 132.847Q48.8 132.26888 48.8 131.097ZM50.64375 129.61263Q50.2375 129.61263 49.971874 129.95638Q49.721874 130.30013 49.721874 131.20638Q49.721874 132.01888 49.9875 132.36263Q50.253124 132.70638 50.64375 132.70638Q51.034374 132.70638 51.3 132.36263Q51.565624 132.01888 51.565624 131.11263Q51.565624 130.2845 51.3 129.95638Q51.034374 129.61263 50.64375 129.61263Z" fill-rule="nonzero"/><path stroke="#757575" stroke-width="1.0" stroke-linecap="butt" d="M18.55 120.612625L145.23334 120.612625L185.66298 120.612625" fill-rule="nonzero"/><path fill="#9e9e9e" d="M187.66298 120.612625C187.66298 119.50806 186.76755 118.612625 185.66298 118.612625C184.55841 118.612625 183.66298 119.50806 183.66298 120.612625C183.66298 121.71719 184.55841 122.612625 185.66298 122.612625C186.76755 122.612625 187.66298 121.71719 187.66298 120.612625" fill-rule="nonzero"/><path fill="#1a1a1a" d="M512.3719 293.75046L512.3719 285.1567L515.34064 285.1567Q516.34064 285.1567 516.8719 285.2817Q517.60626 285.45358 518.1219 285.89108Q518.8094 286.4692 519.1375 287.37546Q519.48126 288.26608 519.48126 289.4067Q519.48126 290.39108 519.2469 291.14108Q519.02814 291.89108 518.66876 292.39108Q518.3094 292.89108 517.8719 293.17233Q517.45 293.45358 516.85626 293.60983Q516.2625 293.75046 515.48126 293.75046L512.3719 293.75046ZM513.5125 292.73483L515.34064 292.73483Q516.2 292.73483 516.6844 292.57858Q517.16876 292.42233 517.45 292.12546Q517.85626 291.73483 518.075 291.04733Q518.3094 290.35983 518.3094 289.39108Q518.3094 288.04733 517.85626 287.32858Q517.41876 286.5942 516.79376 286.3442Q516.325 286.17233 515.325 286.17233L513.5125 286.17233L513.5125 292.73483ZM525.4969 291.75046L526.59064 291.87546Q526.34064 292.82858 525.6375 293.35983Q524.9344 293.89108 523.85626 293.89108Q522.4969 293.89108 521.6844 293.04733Q520.8875 292.20358 520.8875 290.68796Q520.8875 289.12546 521.7 288.26608Q522.5125 287.39108 523.79376 287.39108Q525.04376 287.39108 525.825 288.23483Q526.6219 289.07858 526.6219 290.62546Q526.6219 290.7192 526.6219 290.9067L521.98126 290.9067Q522.04376 291.93796 522.5594 292.48483Q523.075 293.01608 523.85626 293.01608Q524.4344 293.01608 524.84064 292.7192Q525.2625 292.4067 525.4969 291.75046ZM522.04376 290.04733L525.5125 290.04733Q525.45 289.25046 525.1219 288.85983Q524.60626 288.25046 523.8094 288.25046Q523.075 288.25046 522.575 288.73483Q522.09064 289.2192 522.04376 290.04733ZM532.325 293.75046L532.325 292.82858Q531.59064 293.89108 530.34064 293.89108Q529.79376 293.89108 529.3094 293.68796Q528.84064 293.4692 528.60626 293.1567Q528.3719 292.82858 528.27814 292.35983Q528.21564 292.06296 528.21564 291.37546L528.21564 287.5317L529.27814 287.5317L529.27814 290.98483Q529.27814 291.79733 529.34064 292.0942Q529.4344 292.50046 529.7469 292.75046Q530.075 292.98483 530.5594 292.98483Q531.02814 292.98483 531.4344 292.75046Q531.85626 292.50046 532.02814 292.07858Q532.21564 291.6567 532.21564 290.85983L532.21564 287.5317L533.2625 287.5317L533.2625 293.75046L532.325 293.75046ZM537.54376 292.81296L537.7 293.73483Q537.2469 293.82858 536.90314 293.82858Q536.325 293.82858 536.0125 293.6567Q535.7 293.4692 535.5594 293.17233Q535.4344 292.87546 535.4344 291.92233L535.4344 288.3442L534.66876 288.3442L534.66876 287.5317L535.4344 287.5317L535.4344 285.98483L536.48126 285.35983L536.48126 287.5317L537.54376 287.5317L537.54376 288.3442L536.48126 288.3442L536.48126 291.98483Q536.48126 292.43796 536.52814 292.56296Q536.59064 292.68796 536.71564 292.76608Q536.84064 292.8442 537.075 292.8442Q537.2625 292.8442 537.54376 292.81296ZM537.825 291.89108L538.85626 291.73483Q538.95 292.35983 539.34064 292.68796Q539.7469 293.01608 540.48126 293.01608Q541.2 293.01608 541.54376 292.73483Q541.90314 292.43796 541.90314 292.0317Q541.90314 291.67233 541.59064 291.4692Q541.3719 291.32858 540.5125 291.10983Q539.35626 290.81296 538.90314 290.60983Q538.46564 290.39108 538.23126 290.01608Q537.9969 289.64108 537.9969 289.17233Q537.9969 288.76608 538.1844 288.4067Q538.3719 288.04733 538.7 287.81296Q538.95 287.64108 539.3719 287.51608Q539.79376 287.39108 540.29376 287.39108Q541.0125 287.39108 541.5594 287.60983Q542.1219 287.81296 542.3875 288.17233Q542.65314 288.5317 542.7469 289.12546L541.71564 289.26608Q541.65314 288.79733 541.3094 288.5317Q540.98126 288.25046 540.35626 288.25046Q539.6375 288.25046 539.325 288.50046Q539.0125 288.73483 539.0125 289.06296Q539.0125 289.26608 539.1375 289.42233Q539.27814 289.5942 539.54376 289.70358Q539.7 289.76608 540.48126 289.9692Q541.60626 290.2817 542.04376 290.4692Q542.48126 290.6567 542.73126 291.01608Q542.98126 291.37546 542.98126 291.92233Q542.98126 292.45358 542.66876 292.92233Q542.3719 293.37546 541.79376 293.64108Q541.21564 293.89108 540.48126 293.89108Q539.2625 293.89108 538.6219 293.39108Q537.9969 292.87546 537.825 291.89108ZM549.3094 291.4692L550.34064 291.60983Q550.16876 292.67233 549.46564 293.2817Q548.7625 293.89108 547.7469 293.89108Q546.46564 293.89108 545.6844 293.06296Q544.91876 292.2192 544.91876 290.6567Q544.91876 289.6567 545.2469 288.9067Q545.59064 288.14108 546.2625 287.76608Q546.95 287.39108 547.7625 287.39108Q548.7625 287.39108 549.40314 287.9067Q550.0594 288.4067 550.2469 289.35983L549.21564 289.51608Q549.075 288.89108 548.7 288.57858Q548.325 288.25046 547.79376 288.25046Q546.9969 288.25046 546.4969 288.82858Q545.9969 289.39108 545.9969 290.62546Q545.9969 291.89108 546.48126 292.45358Q546.96564 293.01608 547.73126 293.01608Q548.35626 293.01608 548.7625 292.64108Q549.1844 292.26608 549.3094 291.4692ZM551.2469 293.75046L551.2469 285.1567L552.29376 285.1567L552.29376 288.23483Q553.02814 287.39108 554.15314 287.39108Q554.85626 287.39108 555.35626 287.67233Q555.8719 287.93796 556.09064 288.42233Q556.3094 288.89108 556.3094 289.81296L556.3094 293.75046L555.2625 293.75046L555.2625 289.81296Q555.2625 289.01608 554.91876 288.6567Q554.575 288.29733 553.95 288.29733Q553.48126 288.29733 553.0594 288.54733Q552.65314 288.7817 552.46564 289.20358Q552.29376 289.60983 552.29376 290.3442L552.29376 293.75046L551.2469 293.75046ZM558.21564 293.75046L558.21564 285.1567L559.27814 285.1567L559.27814 293.75046L558.21564 293.75046ZM565.3094 292.98483Q564.71564 293.48483 564.16876 293.68796Q563.6375 293.89108 563.0125 293.89108Q561.98126 293.89108 561.4344 293.39108Q560.8875 292.89108 560.8875 292.10983Q560.8875 291.6567 561.09064 291.2817Q561.29376 290.89108 561.6375 290.67233Q561.98126 290.43796 562.40314 290.32858Q562.7 290.23483 563.34064 290.1567Q564.60626 290.01608 565.21564 289.79733Q565.21564 289.57858 565.21564 289.5317Q565.21564 288.87546 564.91876 288.60983Q564.5125 288.26608 563.71564 288.26608Q562.98126 288.26608 562.6219 288.5317Q562.2625 288.7817 562.09064 289.43796L561.0594 289.29733Q561.2 288.64108 561.52814 288.23483Q561.85626 287.82858 562.46564 287.60983Q563.075 287.39108 563.8719 287.39108Q564.66876 287.39108 565.16876 287.57858Q565.66876 287.76608 565.90314 288.04733Q566.1375 288.32858 566.23126 288.76608Q566.27814 289.0317 566.27814 289.73483L566.27814 291.14108Q566.27814 292.60983 566.34064 293.00046Q566.41876 293.39108 566.6219 293.75046L565.5125 293.75046Q565.35626 293.42233 565.3094 292.98483ZM565.21564 290.62546Q564.6375 290.85983 563.4969 291.0317Q562.84064 291.12546 562.575 291.25046Q562.3094 291.35983 562.15314 291.57858Q562.0125 291.79733 562.0125 292.07858Q562.0125 292.50046 562.325 292.7817Q562.65314 293.06296 563.2625 293.06296Q563.8719 293.06296 564.34064 292.79733Q564.825 292.5317 565.04376 292.06296Q565.21564 291.70358 565.21564 291.01608L565.21564 290.62546ZM568.2469 293.75046L568.2469 287.5317L569.1844 287.5317L569.1844 288.4067Q569.8719 287.39108 571.16876 287.39108Q571.73126 287.39108 572.2 287.5942Q572.6844 287.79733 572.91876 288.12546Q573.15314 288.45358 573.2469 288.89108Q573.29376 289.18796 573.29376 289.92233L573.29376 293.75046L572.2469 293.75046L572.2469 289.9692Q572.2469 289.31296 572.1219 289.00046Q571.9969 288.68796 571.6844 288.50046Q571.3719 288.29733 570.95 288.29733Q570.27814 288.29733 569.77814 288.73483Q569.29376 289.1567 569.29376 290.3442L569.29376 293.75046L568.2469 293.75046ZM579.27814 293.75046L579.27814 292.9692Q578.6844 293.89108 577.54376 293.89108Q576.79376 293.89108 576.16876 293.48483Q575.54376 293.06296 575.2 292.32858Q574.85626 291.5942 574.85626 290.64108Q574.85626 289.7192 575.16876 288.95358Q575.48126 288.18796 576.10626 287.79733Q576.73126 287.39108 577.4969 287.39108Q578.0594 287.39108 578.4969 287.62546Q578.9344 287.85983 579.21564 288.23483L579.21564 285.1567L580.2625 285.1567L580.2625 293.75046L579.27814 293.75046ZM575.95 290.64108Q575.95 291.8442 576.45 292.43796Q576.95 293.01608 577.6375 293.01608Q578.325 293.01608 578.8094 292.45358Q579.29376 291.89108 579.29376 290.73483Q579.29376 289.45358 578.79376 288.85983Q578.3094 288.26608 577.59064 288.26608Q576.8875 288.26608 576.41876 288.8442Q575.95 289.4067 575.95 290.64108Z" fill-rule="nonzero"/><path fill="#9e9e9e" d="M547.0125 303.2817L547.0125 302.26608L552.575 302.26608L552.575 303.0942Q551.7625 303.9692 550.95 305.42233Q550.15314 306.85983 549.71564 308.39108Q549.3875 309.4692 549.3094 310.75046L548.21564 310.75046Q548.23126 309.73483 548.60626 308.29733Q548.9969 306.85983 549.7 305.5317Q550.41876 304.20358 551.23126 303.2817L547.0125 303.2817ZM553.95 308.48483L555.0125 308.3442Q555.1844 309.23483 555.6219 309.64108Q556.0594 310.0317 556.6844 310.0317Q557.4344 310.0317 557.95 309.51608Q558.46564 309.00046 558.46564 308.23483Q558.46564 307.51608 557.98126 307.04733Q557.5125 306.56296 556.77814 306.56296Q556.48126 306.56296 556.02814 306.68796L556.15314 305.75046Q556.2625 305.76608 556.325 305.76608Q556.9969 305.76608 557.52814 305.42233Q558.075 305.06296 558.075 304.32858Q558.075 303.75046 557.6844 303.37546Q557.29376 302.98483 556.66876 302.98483Q556.0594 302.98483 555.6375 303.37546Q555.23126 303.76608 555.1219 304.5317L554.0594 304.3442Q554.2469 303.29733 554.9344 302.7192Q555.6219 302.12546 556.6375 302.12546Q557.34064 302.12546 557.9344 302.43796Q558.52814 302.73483 558.84064 303.25046Q559.15314 303.76608 559.15314 304.35983Q559.15314 304.9067 558.85626 305.37546Q558.5594 305.82858 557.98126 306.0942Q558.73126 306.26608 559.15314 306.82858Q559.575 307.37546 559.575 308.2192Q559.575 309.3442 558.7469 310.12546Q557.9344 310.9067 556.6844 310.9067Q555.5594 310.9067 554.8094 310.23483Q554.0594 309.54733 553.95 308.48483ZM561.54376 310.75046L561.54376 309.54733L562.7469 309.54733L562.7469 310.75046L561.54376 310.75046ZM563.95 308.48483L565.0125 308.3442Q565.1844 309.23483 565.6219 309.64108Q566.0594 310.0317 566.6844 310.0317Q567.4344 310.0317 567.95 309.51608Q568.46564 309.00046 568.46564 308.23483Q568.46564 307.51608 567.98126 307.04733Q567.5125 306.56296 566.77814 306.56296Q566.48126 306.56296 566.02814 306.68796L566.15314 305.75046Q566.2625 305.76608 566.325 305.76608Q566.9969 305.76608 567.52814 305.42233Q568.075 305.06296 568.075 304.32858Q568.075 303.75046 567.6844 303.37546Q567.29376 302.98483 566.66876 302.98483Q566.0594 302.98483 565.6375 303.37546Q565.23126 303.76608 565.1219 304.5317L564.0594 304.3442Q564.2469 303.29733 564.9344 302.7192Q565.6219 302.12546 566.6375 302.12546Q567.34064 302.12546 567.9344 302.43796Q568.52814 302.73483 568.84064 303.25046Q569.15314 303.76608 569.15314 304.35983Q569.15314 304.9067 568.85626 305.37546Q568.5594 305.82858 567.98126 306.0942Q568.73126 306.26608 569.15314 306.82858Q569.575 307.37546 569.575 308.2192Q569.575 309.3442 568.7469 310.12546Q567.9344 310.9067 566.6844 310.9067Q565.5594 310.9067 564.8094 310.23483Q564.0594 309.54733 563.95 308.48483ZM571.15314 304.2192Q571.15314 303.29733 571.60626 302.6567Q572.075 302.01608 572.95 302.01608Q573.7625 302.01608 574.29376 302.5942Q574.825 303.17233 574.825 304.2817Q574.825 305.37546 574.27814 305.9692Q573.7469 306.54733 572.96564 306.54733Q572.1844 306.54733 571.66876 305.9692Q571.15314 305.39108 571.15314 304.2192ZM572.98126 302.73483Q572.59064 302.73483 572.325 303.07858Q572.075 303.42233 572.075 304.32858Q572.075 305.1567 572.325 305.50046Q572.59064 305.82858 572.98126 305.82858Q573.3875 305.82858 573.6375 305.48483Q573.90314 305.14108 573.90314 304.25046Q573.90314 303.4067 573.6375 303.07858Q573.3719 302.73483 572.98126 302.73483ZM572.98126 311.06296L577.6844 302.01608L578.54376 302.01608L573.85626 311.06296L572.98126 311.06296ZM576.7 308.73483Q576.7 307.81296 577.15314 307.17233Q577.6219 306.5317 578.5125 306.5317Q579.325 306.5317 579.85626 307.10983Q580.3875 307.67233 580.3875 308.79733Q580.3875 309.89108 579.84064 310.48483Q579.3094 311.06296 578.5125 311.06296Q577.7469 311.06296 577.21564 310.48483Q576.7 309.9067 576.7 308.73483ZM578.54376 307.25046Q578.1375 307.25046 577.8719 307.5942Q577.6219 307.93796 577.6219 308.8442Q577.6219 309.6567 577.8875 310.00046Q578.15314 310.3442 578.54376 310.3442Q578.9344 310.3442 579.2 310.00046Q579.46564 309.6567 579.46564 308.75046Q579.46564 307.92233 579.2 307.5942Q578.9344 307.25046 578.54376 307.25046Z" fill-rule="nonzero"/><path stroke="#757575" stroke-width="1.0" stroke-linecap="butt" d="M581.45 298.25046L454.76666 298.25046L405.0274 298.25046" fill-rule="nonzero"/><path fill="#9e9e9e" d="M407.0274 298.25046C407.0274 297.14587 406.132 296.25046 405.0274 296.25046C403.92285 296.25046 403.0274 297.14587 403.0274 298.25046C403.0274 299.355 403.92285 300.25046 405.0274 300.25046C406.132 300.25046 407.0274 299.355 407.0274 298.25046" fill-rule="nonzero"/><path fill="#757575" d="M22.596874 37.55L18.8 23.2375L20.7375 23.2375L22.909374 32.6125Q23.26875 34.096874 23.51875 35.55Q24.065624 33.253124 24.159374 32.89375L26.89375 23.2375L29.175 23.2375L31.221874 30.471874Q32.003124 33.175 32.346874 35.55Q32.6125 34.190624 33.05 32.425L35.3 23.2375L37.20625 23.2375L33.284374 37.55L31.45625 37.55L28.440624 26.64375Q28.05 25.26875 27.9875 24.95625Q27.753124 25.940624 27.565624 26.64375L24.534374 37.55L22.596874 37.55ZM38.221874 32.3625Q38.221874 29.4875 39.815624 28.096874Q41.159374 26.940624 43.08125 26.940624Q45.221874 26.940624 46.565624 28.346874Q47.925 29.753124 47.925 32.221874Q47.925 34.221874 47.33125 35.378124Q46.7375 36.51875 45.58125 37.159374Q44.440624 37.784374 43.08125 37.784374Q40.89375 37.784374 39.55 36.39375Q38.221874 34.9875 38.221874 32.3625ZM40.01875 32.3625Q40.01875 34.3625 40.878124 35.346874Q41.753124 36.33125 43.08125 36.33125Q44.39375 36.33125 45.253124 35.346874Q46.128124 34.346874 46.128124 32.3Q46.128124 30.378124 45.253124 29.39375Q44.378124 28.39375 43.08125 28.39375Q41.753124 28.39375 40.878124 29.39375Q40.01875 30.378124 40.01875 32.3625ZM49.8625 37.55L49.8625 23.2375L51.628124 23.2375L51.628124 28.3625Q52.8625 26.940624 54.7375 26.940624Q55.878124 26.940624 56.721874 27.39375Q57.58125 27.846874 57.940624 28.659374Q58.315624 29.45625 58.315624 30.971874L58.315624 37.55L56.565624 37.55L56.565624 30.971874Q56.565624 29.659374 55.9875 29.065624Q55.409374 28.45625 54.378124 28.45625Q53.596874 28.45625 52.89375 28.8625Q52.20625 29.26875 51.909374 29.971874Q51.628124 30.659374 51.628124 31.878124L51.628124 37.55L49.8625 37.55ZM59.8625 37.55L59.8625 27.175L61.45625 27.175L61.45625 28.659374Q62.596874 26.940624 64.75313 26.940624Q65.69063 26.940624 66.47188 27.284374Q67.26875 27.6125 67.65938 28.159374Q68.05 28.70625 68.20625 29.45625Q68.3 29.95625 68.3 31.175L68.3 37.55L66.53438 37.55L66.53438 31.2375Q66.53438 30.159374 66.33125 29.628124Q66.12813 29.096874 65.59688 28.784374Q65.08125 28.471874 64.37813 28.471874Q63.253124 28.471874 62.440624 29.190624Q61.628124 29.89375 61.628124 31.878124L61.628124 37.55L59.8625 37.55ZM69.22188 32.3625Q69.22188 29.4875 70.81563 28.096874Q72.15938 26.940624 74.08125 26.940624Q76.22188 26.940624 77.56563 28.346874Q78.925 29.753124 78.925 32.221874Q78.925 34.221874 78.33125 35.378124Q77.7375 36.51875 76.58125 37.159374Q75.44063 37.784374 74.08125 37.784374Q71.89375 37.784374 70.55 36.39375Q69.22188 34.9875 69.22188 32.3625ZM71.01875 32.3625Q71.01875 34.3625 71.87813 35.346874Q72.75313 36.33125 74.08125 36.33125Q75.39375 36.33125 76.25313 35.346874Q77.12813 34.346874 77.12813 32.3Q77.12813 30.378124 76.25313 29.39375Q75.37813 28.39375 74.08125 28.39375Q72.75313 28.39375 71.87813 29.39375Q71.01875 30.378124 71.01875 32.3625ZM80.84688 37.55L80.84688 27.175L82.425 27.175L82.425 28.753124Q83.03438 27.64375 83.55 27.3Q84.06563 26.940624 84.675 26.940624Q85.56563 26.940624 86.4875 27.503124L85.87813 29.14375Q85.2375 28.753124 84.59688 28.753124Q84.01875 28.753124 83.55 29.1125Q83.09688 29.45625 82.89375 30.065624Q82.6125 31.003124 82.6125 32.1125L82.6125 37.55L80.84688 37.55ZM91.70625 35.971874L91.95625 37.534374Q91.22188 37.690624 90.62813 37.690624Q89.675 37.690624 89.14375 37.39375Q88.62813 37.08125 88.40938 36.596874Q88.19063 36.096874 88.19063 34.51875L88.19063 28.55L86.90938 28.55L86.90938 27.175L88.19063 27.175L88.19063 24.6125L89.94063 23.55L89.94063 27.175L91.70625 27.175L91.70625 28.55L89.94063 28.55L89.94063 34.6125Q89.94063 35.3625 90.03438 35.58125Q90.12813 35.784374 90.33125 35.925Q90.55 36.05 90.94063 36.05Q91.22188 36.05 91.70625 35.971874Z" fill-rule="nonzero"/></svg>